<svg width="1000" height="1000" viewBox="0 0 1000 1000" fill="none" xmlns="http://www.w3.org/2000/svg">
<path d="M487.75 138.813C489.341 138.823 490.932 138.833 492.523 138.843C496.569 138.873 500.614 138.921 504.66 138.973C506.904 138.999 509.148 139.015 511.393 139.026C525.606 139.11 538.972 139.48 552.609 143.754C557.328 145.202 562.049 145.737 566.938 146.313C574.733 147.323 581.37 149.414 588.566 152.53C594.041 154.878 599.551 156.911 605.211 158.758C605.937 158.995 606.663 159.232 607.411 159.476C610.34 160.429 613.272 161.376 616.21 162.303C624.997 165.075 633.059 168.234 641 173C642.213 173.688 643.428 174.373 644.645 175.055C646.287 175.999 647.93 176.943 649.57 177.891C652.563 179.619 655.566 181.314 658.617 182.938C664.416 186.062 669.493 189.227 674.25 193.875C678.736 198.222 683.268 200.912 688.812 203.75C697.616 208.304 703.97 214.159 710.587 221.461C711.863 222.851 713.198 224.185 714.539 225.512C717.379 228.384 719.964 231.411 722.562 234.5C726.76 239.444 731.034 244.301 735.438 249.063C735.921 249.586 736.404 250.109 736.903 250.648C739.01 252.914 741.141 255.139 743.348 257.309C750.029 264.088 755.278 270.571 759.625 279.063C763.394 286.216 767.283 293.254 771.428 300.197C777.791 310.861 783.41 321.465 788 333C788.364 333.896 788.729 334.792 789.104 335.716C794.018 347.882 798.087 359.997 800.973 372.807C802.257 378.441 803.901 383.612 806.219 388.911C807 391 807 391 807 394C807.743 393.67 808.485 393.34 809.25 393C818.865 390.436 828.055 391.794 837 396C849.64 403.844 854.619 414.011 858.365 427.994C859.413 432.957 859.49 437.818 859.438 442.875C859.428 443.934 859.419 444.992 859.41 446.083C859.234 454.05 858.071 460.62 855 468C854.418 469.599 853.842 471.199 853.27 472.801C849.446 483.239 845.253 491.5 838 500C836.624 501.791 835.249 503.582 833.875 505.375C827.568 513.533 820.776 517.349 811.232 520.834C806.319 522.766 806.319 522.766 803.574 527.137C803.385 528.412 803.195 529.687 803 531C802.695 532.582 802.385 534.162 802.07 535.742C801.594 538.307 801.126 540.872 800.676 543.441C799.309 550.697 796.809 556.865 793.125 563.25C791.732 565.895 791.732 565.895 792.562 568.375C793.037 569.241 793.511 570.108 794 571C794.693 572.351 795.38 573.706 796.062 575.063C796.404 575.714 796.746 576.364 797.098 577.035C802.012 587.736 798.408 601.094 796.229 612.13C795.751 614.56 795.294 616.993 794.84 619.428C792.837 629.953 790.792 640.468 785.312 649.813C783.117 653.585 782 656.541 782 661C783.109 664.502 784.167 667.071 786.625 669.812C792.167 672.583 797.741 673.033 803.841 673.236C813.705 673.596 820.884 675.458 827.938 682.688C835.798 692.736 834.993 706.215 833.76 718.366C833.526 720.247 833.266 722.124 833 724C848.082 725.229 863.189 725.3 878.312 725.5C888.209 725.632 898.105 725.789 908 726C909.531 726.027 909.531 726.027 911.094 726.055C913.786 726.109 916.476 726.19 919.168 726.281C920.319 726.3 920.319 726.3 921.492 726.318C924.78 726.459 926.571 726.607 929.04 728.873C930 731 930 731 929.188 733.75C928.796 734.493 928.404 735.235 928 736C920.127 737.144 912.327 737.084 904.394 737.018C889.531 736.855 889.531 736.855 874.688 737.5C865.252 738.173 855.817 738.052 846.364 737.963C845.126 737.955 843.889 737.946 842.613 737.938C840.955 737.92 840.955 737.92 839.263 737.902C835.776 738.007 832.448 738.487 829 739C827.12 739.114 825.238 739.197 823.355 739.246C822.349 739.279 821.343 739.312 820.307 739.346C818.208 739.407 816.109 739.465 814.01 739.518C812.51 739.569 812.51 739.569 810.98 739.621C810.072 739.646 809.163 739.671 808.227 739.697C805.798 739.799 805.798 739.799 804 742C803.359 744.844 802.826 747.625 802.375 750.5C802.182 751.727 802.182 751.727 801.984 752.979C800.414 763.387 800.574 770.313 805 780C805.33 780.99 805.66 781.98 806 783C806.598 783.103 807.196 783.206 807.812 783.312C811.19 784.374 812.08 787.092 814 790C815.076 790.95 816.183 791.865 817.312 792.75C826.527 800.366 832.462 812.231 834 824C834.895 834.365 832.968 844.518 826.715 852.973C820.388 860.453 812.764 866.054 802.779 867.271C786.588 868.455 774.082 864.519 761.555 853.934C747.693 840.801 741.092 823.852 739.715 805.121C739.321 788.138 743.079 771.607 747.106 755.2C748.477 749.409 749.446 744.825 748 739C744.229 738.913 740.459 738.86 736.688 738.812C735.08 738.775 735.08 738.775 733.439 738.736C732.411 738.727 731.383 738.717 730.324 738.707C728.902 738.683 728.902 738.683 727.452 738.659C724.981 738.82 724.981 738.82 723.188 740.221C721.644 742.533 721.646 743.985 721.664 746.754C721.655 747.686 721.646 748.619 721.636 749.58C721.631 751.056 721.631 751.056 721.625 752.562C721.422 760.727 721.098 767.286 716 774C715.333 774.971 715.333 774.971 714.652 775.961C710.388 781.591 704.016 785.773 697 787C679.906 788.129 679.906 788.129 673 783C671.969 782.299 670.938 781.598 669.875 780.875C661.548 773.411 658.73 762.695 657.52 751.973C657.441 751.292 657.363 750.612 657.282 749.911C657.072 747.961 656.896 746.008 656.723 744.055C656.342 741.002 656.342 741.002 654.454 739.826C650.987 738.659 647.623 738.713 644.006 738.725C643.204 738.72 642.402 738.715 641.576 738.71C638.927 738.696 636.278 738.697 633.629 738.699C631.786 738.695 629.943 738.691 628.099 738.686C624.237 738.679 620.374 738.679 616.511 738.684C611.564 738.69 606.617 738.673 601.669 738.65C597.863 738.635 594.056 738.634 590.25 738.638C588.426 738.637 586.602 738.632 584.778 738.622C582.226 738.609 579.675 738.616 577.123 738.628C576.371 738.62 575.62 738.612 574.845 738.605C570.41 738.649 567.5 739.206 564 742C563.271 744.346 563.271 744.346 563.398 747.008C563.383 747.995 563.367 748.983 563.352 750C563.359 751.031 563.367 752.062 563.375 753.125C563.375 763.394 562.453 771.903 555.879 780.141C547.855 788.081 539.557 789.283 528.865 789.321C522.808 789.231 518.127 788.402 513 785C512.092 784.464 511.185 783.928 510.25 783.375C503.315 776.055 501.576 766.137 499.688 756.562C499.424 755.297 499.16 754.032 498.889 752.729C497 743.53 497 743.53 497 740C490.096 738.71 483.225 738.867 476.222 738.886C474.81 738.887 473.398 738.887 471.986 738.886C468.116 738.886 464.246 738.892 460.376 738.899C456.199 738.905 452.022 738.906 447.845 738.907C440.609 738.91 433.373 738.916 426.137 738.925C415.667 738.937 405.198 738.943 394.728 738.948C377.732 738.955 360.735 738.966 343.738 738.979C342.721 738.98 341.704 738.981 340.656 738.982C333.438 738.988 326.219 738.994 319 739C310.754 739.007 302.508 739.014 294.262 739.021C293.246 739.021 292.23 739.022 291.184 739.023C274.25 739.037 257.317 739.046 240.383 739.053C229.939 739.058 219.495 739.066 209.051 739.079C201.897 739.087 194.742 739.092 187.588 739.094C183.459 739.095 179.331 739.098 175.203 739.106C171.423 739.113 167.643 739.115 163.863 739.113C161.849 739.113 159.836 739.119 157.822 739.124C152.101 739.118 146.635 739.004 141 738C139.24 737.926 137.479 737.892 135.718 737.902C134.735 737.906 133.753 737.909 132.74 737.912C131.696 737.921 130.651 737.929 129.574 737.938C128.473 737.941 127.371 737.945 126.236 737.949C121.554 737.965 116.872 737.993 112.19 738.021C89.2123 738.144 89.2123 738.144 78.3945 737.562C77.647 737.523 76.8995 737.484 76.1293 737.444C71.1308 737.131 71.1308 737.131 70 736C69.8125 733.062 69.8125 733.062 70 730C72.4814 727.519 73.494 727.645 76.9336 727.367C77.9626 727.283 78.9916 727.199 80.0518 727.113C81.1691 727.034 82.2863 726.956 83.4375 726.875C84.5844 726.789 85.7314 726.704 86.9131 726.615C96.6775 725.952 106.406 725.848 116.189 725.986C117.789 726.006 117.789 726.006 119.422 726.027C120.356 726.045 121.29 726.063 122.253 726.082C125.245 725.993 128.053 725.508 131 725C132.41 724.938 133.823 724.913 135.234 724.938C135.973 724.945 136.712 724.953 137.473 724.961C138.224 724.974 138.976 724.987 139.75 725C145.031 725.334 145.031 725.334 150 724C150.533 708.258 149.854 692.896 148.188 677.25C148.105 676.453 148.022 675.656 147.936 674.835C147.108 666.979 146.128 659.264 144.457 651.535C142.617 642.806 142.072 634.07 141.5 625.188C140.865 615.391 140.104 605.686 138.531 595.988C138.351 594.849 138.351 594.849 138.166 593.688C137.564 590.191 136.996 587.994 135 585C132.745 584.385 132.745 584.385 130.188 584.125C125.372 583.304 123.065 581.955 120 578C117.9 573.799 118.682 568.366 118.625 563.75C118.588 562.617 118.55 561.484 118.512 560.316C118.413 550.937 118.413 550.937 121.336 547.266C125.404 543.806 128.746 543.805 133.938 543.5C139.61 543.411 139.61 543.411 145 542C146.04 539.923 146.04 539.923 146.562 537.375C146.806 536.474 147.05 535.573 147.301 534.645C147.532 533.772 147.762 532.899 148 532C148.776 529.293 149.57 527.503 151 525C155.941 522.381 159.585 521.634 165.246 521.707C165.902 521.711 166.558 521.716 167.234 521.72C169.302 521.737 171.369 521.774 173.438 521.813C174.851 521.828 176.264 521.841 177.678 521.854C181.119 521.886 184.559 521.938 188 522C187.689 520.733 187.379 519.466 187.059 518.16C185.9 512.937 185.446 507.766 185.062 502.438C184.508 495.338 183.815 488.295 182.84 481.241C178.696 451.114 179.37 422.103 186.43 392.524C187.232 388.973 187.795 385.407 188.375 381.813C189.648 374.775 191.843 368.271 194.319 361.571C196.088 356.753 197.564 351.992 198.766 347.003C200.713 338.979 203.567 332.864 208.206 326.043C211.451 321.184 213.566 316.376 215.5 310.875C217.853 304.292 220.675 299.123 224.957 293.618C228.985 288.334 231.944 282.636 235 276.75C238.758 269.607 242.31 263.88 248.422 258.488C252.386 254.662 255.487 250.243 258.715 245.793C262.889 240.051 267.136 234.312 272.625 229.75C275.611 227.215 278.517 224.613 281.384 221.944C288.745 215.104 295.901 209.076 304.75 204.25C309.68 201.552 313.97 198.551 318.188 194.813C334.131 180.872 351.411 171.9 371 164C371.894 163.636 372.789 163.272 373.71 162.897C390.239 156.272 407.476 151.491 424.535 146.441C425.314 146.21 426.094 145.978 426.897 145.739C432.227 144.172 437.361 142.978 442.914 142.535C443.841 142.457 444.768 142.379 445.723 142.299C447.634 142.143 449.545 141.99 451.457 141.838C456.107 141.443 460.597 140.914 465.164 139.945C472.644 138.519 480.169 138.741 487.75 138.813ZM328 406C322.72 406.073 317.438 405.927 312.16 405.785C304.82 405.688 299.48 405.851 293.82 410.973C293.261 411.662 292.701 412.352 292.125 413.063C291.55 413.755 290.975 414.447 290.383 415.16C286.937 419.745 287.555 424.462 288 430C289.35 438.454 291.383 446.806 293.625 455.063C294.831 459.708 295.378 464.296 295.812 469.063C296.888 480.505 299.685 491.564 302.267 502.741C303.503 508.235 304.579 513.76 305.619 519.294C306.392 523.313 307.335 527.199 308.492 531.125C310.753 539.225 311.444 547.57 312.373 555.906C313.21 562.797 314.456 568.774 317.026 575.212C319.29 581.692 320.003 588.653 321.066 595.412C322.105 601.542 322.933 606.2 327 611C330.535 610.705 331.762 610.251 334.25 607.625C337.597 602.605 337.375 597.84 337 592C336.392 589.651 335.729 587.315 335 585C332.565 569.469 332.387 552.831 338 538C338.229 537.232 338.459 536.463 338.695 535.672C340 534 340 534 343.188 533.129C356.276 532.686 372.341 541.558 381.923 550.144C383.342 551.473 384.733 552.831 386.121 554.191C386.578 554.635 387.036 555.079 387.507 555.536C388.582 556.59 389.635 557.667 390.672 558.758C395.941 563.922 399.93 565.146 407.203 565.359C408.162 565.403 409.121 565.446 410.109 565.49C412.129 565.568 414.15 565.627 416.17 565.669C419.235 565.75 422.281 565.936 425.34 566.129C436.339 566.792 436.339 566.792 445.924 562.2C449.021 559.075 451.456 555.58 454 552C465.173 541.383 482.541 530.762 498.438 530.688C499.613 530.791 500.789 530.894 502 531C505.442 539.449 507.099 547.664 507.559 556.773C508.112 559.567 509.026 560.959 511 563C514.704 564.725 518.816 563.798 522.75 563.313C523.498 563.223 524.246 563.133 525.016 563.041C531.475 562.2 537.655 560.736 543.926 559C554.59 556.271 564.588 555.817 575.562 556.313C576.908 556.362 578.254 556.411 579.6 556.459C586.311 556.72 592.969 557.106 599.642 557.879C603.513 558.078 607.427 557.539 611 556C615.646 549.031 612.312 539.414 610.765 531.677C610.448 530.118 610.13 528.559 609.812 527C609.49 525.387 609.168 523.773 608.846 522.159C608.204 518.939 607.557 515.72 606.906 512.502C606.109 508.551 605.331 504.597 604.562 500.641C604.146 498.51 603.729 496.38 603.312 494.25C603.046 492.873 603.046 492.873 602.775 491.469C601.698 486.042 600.423 480.689 599.043 475.332C596.762 466.418 595.186 457.418 593.646 448.352C590.802 426.492 590.802 426.492 578.168 409.672C564.01 400.912 537.668 404.812 521.385 405.392C502.716 406.045 484.059 406.15 465.38 406.134C461.164 406.132 456.947 406.134 452.73 406.136C445.69 406.138 438.65 406.135 431.61 406.13C423.503 406.125 415.395 406.127 407.288 406.132C400.251 406.137 393.214 406.137 386.177 406.135C382.005 406.133 377.834 406.133 373.662 406.136C369.763 406.139 365.864 406.137 361.965 406.131C360.543 406.13 359.122 406.13 357.701 406.133C350.742 406.143 343.903 406.056 336.994 405.171C333.932 404.909 331.03 405.54 328 406ZM178.765 534.05C176.198 534.099 173.635 534.175 171.07 534.27C169.781 534.313 168.493 534.357 167.165 534.402C163.465 535.101 161.702 536.434 159 539C159.348 540.975 159.348 540.975 160 543C163.183 544.591 166.623 544.147 170.118 544.145C171.377 544.15 171.377 544.15 172.661 544.155C175.446 544.165 178.231 544.167 181.016 544.168C182.949 544.171 184.882 544.175 186.816 544.178C190.874 544.184 194.933 544.186 198.992 544.185C204.188 544.185 209.384 544.199 214.581 544.216C218.577 544.227 222.573 544.229 226.569 544.229C228.484 544.23 230.399 544.234 232.315 544.242C234.998 544.252 237.681 544.249 240.364 544.243C241.153 544.249 241.942 544.254 242.755 544.26C247.2 544.235 250.852 543.806 255 542C256.329 540.185 256.329 540.185 256 538C253.804 535.105 252.612 534.099 248.983 533.512C247.802 533.518 246.622 533.524 245.406 533.53C244.751 533.528 244.097 533.526 243.423 533.523C241.258 533.521 239.094 533.547 236.93 533.574C235.409 533.579 233.889 533.582 232.368 533.584C229.172 533.592 225.976 533.612 222.78 533.643C218.736 533.682 214.693 533.701 210.65 533.711C200.02 533.738 189.394 533.886 178.765 534.05ZM132.404 557.846C130.446 560.85 130.354 562.481 131 566C132.645 568.605 133.362 569.575 136 571C140.565 571.755 145.126 571.653 149.739 571.599C151.153 571.601 152.568 571.605 153.982 571.611C157.817 571.621 161.651 571.6 165.486 571.573C169.499 571.549 173.512 571.552 177.525 571.552C184.262 571.547 190.999 571.523 197.736 571.487C205.528 571.445 213.319 571.428 221.111 571.424C229.405 571.421 237.699 571.402 245.993 571.377C248.385 571.371 250.776 571.367 253.167 571.364C256.922 571.358 260.676 571.342 264.43 571.318C265.809 571.31 267.189 571.306 268.568 571.306C270.447 571.304 272.327 571.29 274.206 571.274C275.785 571.267 275.785 571.267 277.396 571.26C280.235 571.182 280.235 571.182 283 569C284.064 564.991 284.064 564.991 284 561C281.907 558.353 280.682 557.138 277.335 556.459C276.297 556.44 275.259 556.421 274.189 556.402C272.965 556.371 271.742 556.34 270.481 556.309C269.099 556.295 267.718 556.282 266.336 556.27C264.851 556.243 263.366 556.214 261.882 556.185C257.57 556.108 253.258 556.063 248.945 556.026C245.843 555.999 242.742 555.967 239.64 555.935C225.17 555.79 210.701 555.728 196.23 555.705C189.815 555.694 183.4 555.659 176.985 555.62C172.006 555.594 167.027 555.585 162.048 555.582C159.679 555.577 157.31 555.565 154.94 555.547C151.661 555.522 148.383 555.523 145.104 555.53C144.134 555.517 143.164 555.504 142.164 555.491C136.938 555.484 136.938 555.484 132.404 557.846ZM418 644C417.319 645.423 417.319 645.423 416.625 646.875C415 650 415 650 413 652C413.32 654.603 413.32 654.603 414 657C420.888 659.856 426.183 658.494 433 656C433.409 651.83 433.409 649.641 431.125 646.063C426.753 643.177 423.092 643.555 418 644ZM379 648C376.784 650.955 376 652.287 376 656C380.557 658.352 384.98 658.626 390 658C392.98 656.668 392.98 656.668 395 655C394.27 650.181 394.27 650.181 392 646C386.702 644.472 383.549 644.899 379 648ZM672.125 731.438C668.299 736.052 668.559 741.192 669 747C670.389 757.196 672.307 764.771 679.188 772.438C684.687 775.493 690.654 775.651 696.688 774.062C701.779 772.118 704.99 768.443 708 764C710.578 756.267 710.372 742.472 707 735C702.761 729.904 697.826 726.401 691.133 725.699C683.213 725.668 678.319 726.186 672.125 731.438ZM516.625 735.812C511.129 743.944 511.834 750.928 513.602 760.133C515.258 767.867 515.258 767.867 520 774C526.578 777.237 534.637 777.141 541.5 774.812C547.269 770.653 547.269 770.653 549.938 764.188C550.507 754.152 549.339 740.704 544 732C540.504 728.901 536.601 727.817 532 727.5C525.456 727.911 520.682 730.741 516.625 735.812ZM764.406 802.91C758.599 811.54 759.092 821.086 760.812 831.062C763.238 839.712 769.767 845.416 777.25 849.984C785.868 854.42 794.098 856.881 803.766 854.246C811.665 851.231 815.918 847.716 819.984 840.316C823.604 832.061 822.029 824.472 819.316 816.211C815.495 806.889 806.443 797.097 797.188 792.938C784.419 789.197 772.625 792.501 764.406 802.91Z" fill="#023375"/>
<path d="M487.75 138.813C489.341 138.823 490.932 138.833 492.523 138.843C496.569 138.873 500.614 138.921 504.66 138.973C506.904 138.999 509.148 139.015 511.393 139.026C525.606 139.11 538.972 139.48 552.609 143.754C557.328 145.202 562.049 145.737 566.937 146.313C574.733 147.323 581.37 149.414 588.566 152.53C594.041 154.878 599.551 156.911 605.211 158.758C605.937 158.995 606.663 159.232 607.41 159.476C610.34 160.429 613.272 161.376 616.21 162.303C624.997 165.075 633.059 168.234 641 173C642.213 173.688 643.428 174.373 644.644 175.055C646.287 175.999 647.93 176.943 649.57 177.891C652.563 179.619 655.566 181.314 658.617 182.938C664.416 186.062 669.493 189.227 674.25 193.875C678.736 198.222 683.268 200.912 688.812 203.75C697.615 208.304 703.97 214.159 710.587 221.461C711.863 222.851 713.198 224.185 714.539 225.512C717.379 228.384 719.964 231.411 722.562 234.5C726.76 239.444 731.034 244.301 735.437 249.063C735.921 249.586 736.404 250.109 736.903 250.648C739.01 252.914 741.141 255.139 743.348 257.309C750.029 264.088 755.278 270.571 759.625 279.063C763.394 286.216 767.283 293.254 771.428 300.197C777.791 310.861 783.41 321.465 788 333C788.364 333.896 788.729 334.792 789.104 335.716C794.018 347.882 798.087 359.997 800.973 372.807C802.251 378.417 803.881 383.548 806.219 388.813C807 391 807 391 807 395C806.12 395.447 805.239 395.895 804.332 396.355C803.171 396.96 802.009 397.565 800.812 398.188C799.664 398.779 798.515 399.371 797.332 399.98C789.796 404.548 786.332 410.218 783.875 418.5C783.542 419.603 783.21 420.707 782.867 421.844C781.284 427.607 780.845 432.738 780.875 438.688C780.871 439.459 780.867 440.231 780.863 441.025C780.772 445.145 780.772 445.145 782 449C783.266 468.739 778.271 482.586 768.439 499.484C765.997 503.753 763.806 508.146 761.598 512.539C759.016 516.516 754.668 520.351 749.977 521.492C748.812 521.682 748.812 521.682 747.625 521.875C733.499 524.569 720.226 529.396 711 541C709.145 543.875 707.372 546.771 705.676 549.742C704 552 704 552 702.043 553.07C700 553 700 553 697.887 551.406C695.852 548.811 694.861 546.617 693.812 543.5C693.489 542.562 693.165 541.623 692.832 540.656C691.537 536.522 690.802 532.915 690.687 528.563C690.65 527.636 690.613 526.709 690.574 525.754C691.139 522.098 692.41 520.62 695 518C697.883 516.043 697.883 516.043 701.125 514.188C711.374 508.113 719.264 501.023 727 492C727.926 490.979 727.926 490.979 728.871 489.938C736.4 481.621 742.193 472.352 747.5 462.5C748.063 461.456 748.626 460.411 749.206 459.335C759.27 440.335 765.175 421.822 765.187 400.188C765.2 399.063 765.212 397.938 765.225 396.779C765.236 389.924 764.66 383.65 763 377C762.693 375.734 762.386 374.468 762.07 373.164C756.221 351.266 747.996 328.841 728 316C714.098 308.281 695.871 302.803 680.062 307.063C668.027 311.219 656.634 316.654 650.75 328.375C650.412 329.009 650.074 329.643 649.727 330.297C645.636 338.188 644.639 345.32 644.687 354.125C644.692 355.147 644.696 356.169 644.7 357.221C644.867 368.412 646.976 377.951 652 388C652.347 388.776 652.693 389.552 653.051 390.352C655.336 395.3 658.015 399.454 661.375 403.75C673.252 419.117 676.325 433.746 674 452.813C671.959 469.899 673.054 485.548 678.125 502C680.365 509.908 680.549 517.717 680.672 525.906C680.281 537.135 680.281 537.135 684 547C684.375 549.875 684.375 549.875 684 553C678.724 557.1 673.375 556.49 667 556C662.795 555.337 659.815 554.289 657 551C652.923 543.775 651.88 535.63 650.613 527.563C650.206 524.172 650.206 524.172 649 522C648.672 519.692 648.389 517.378 648.125 515.063C646.535 501.858 644.566 488.826 641.5 475.875C641.298 475.023 641.097 474.17 640.889 473.292C639.903 469.258 638.799 465.349 637.402 461.438C635.882 457.008 635.406 452.774 635.062 448.125C634.594 442.907 634.028 438.358 631.937 433.5C630.017 428.892 629.727 424.681 629.625 419.75C629.419 412.218 628.172 405.236 626.312 397.938C626.081 396.987 625.849 396.036 625.61 395.056C622.642 384.012 616.514 375.584 606.719 369.608C598.694 365.538 591.248 365.324 582.463 365.448C580.927 365.451 579.392 365.452 577.857 365.451C573.721 365.454 569.585 365.487 565.45 365.526C561.113 365.561 556.776 365.567 552.44 365.576C544.24 365.596 536.041 365.641 527.841 365.696C515.785 365.776 503.728 365.821 491.671 365.863C489.894 365.869 488.116 365.875 486.339 365.882C485.471 365.885 484.604 365.888 483.71 365.891C478.548 365.909 473.386 365.936 468.224 365.969C465.024 365.99 461.824 366.006 458.624 366.022C457.136 366.03 455.648 366.04 454.161 366.052C452.137 366.068 450.113 366.078 448.089 366.087C446.387 366.098 446.387 366.098 444.652 366.109C442 366 442 366 440 365C437.016 364.901 434.056 364.864 431.072 364.871C430.138 364.869 429.205 364.867 428.243 364.865C425.107 364.861 421.972 364.864 418.836 364.867C416.611 364.866 414.387 364.864 412.162 364.862C404.9 364.858 397.637 364.866 390.375 364.875C389.144 364.876 387.913 364.878 386.645 364.879C371.454 364.897 356.262 364.931 341.07 364.974C332.853 364.996 324.637 365.005 316.42 365.006C307.166 365.008 297.913 365.031 288.66 365.084C283.955 365.11 279.25 365.127 274.544 365.12C270.155 365.113 265.766 365.135 261.377 365.178C259.798 365.189 258.219 365.191 256.64 365.18C242.036 365.097 228.849 368.584 217.312 378C216.339 378.743 216.339 378.743 215.346 379.5C210.858 383.006 206.584 386.831 204 392C203.905 393.425 203.869 394.854 203.867 396.281C203.866 397.123 203.865 397.965 203.863 398.832C203.869 400.153 203.869 400.153 203.875 401.5C203.871 402.38 203.867 403.261 203.863 404.168C203.865 405.431 203.865 405.431 203.867 406.719C203.868 407.492 203.869 408.264 203.871 409.061C203.88 411.082 203.88 411.082 205 413C205.32 415.142 205.607 417.289 205.875 419.438C206.469 423.791 207.161 427.922 208.437 432.125C209.895 437.107 210.661 442.059 211.375 447.188C212.454 454.907 213.865 462.504 215.5 470.125C218.195 482.718 220.851 495.382 221.789 508.25C221.913 510.107 221.913 510.107 223 512C223.375 515.375 223.375 515.375 223 519C220.914 521.315 219.23 522.786 216.095 523.332C213.862 523.432 211.67 523.399 209.437 523.313C208.645 523.297 207.853 523.282 207.038 523.266C200.672 523.111 194.33 522.695 188 522C186.395 515.454 185.546 509.152 185.062 502.438C184.508 495.338 183.815 488.295 182.84 481.241C178.696 451.114 179.369 422.103 186.43 392.524C187.232 388.973 187.795 385.407 188.375 381.813C189.648 374.775 191.843 368.271 194.319 361.571C196.088 356.753 197.563 351.992 198.766 347.003C200.713 338.979 203.567 332.864 208.206 326.043C211.451 321.184 213.566 316.376 215.5 310.875C217.853 304.292 220.675 299.123 224.957 293.618C228.985 288.334 231.944 282.636 235 276.75C238.757 269.607 242.31 263.88 248.422 258.488C252.386 254.662 255.487 250.243 258.715 245.793C262.889 240.051 267.136 234.312 272.625 229.75C275.611 227.215 278.516 224.613 281.384 221.944C288.745 215.104 295.901 209.076 304.75 204.25C309.68 201.552 313.97 198.551 318.187 194.813C334.13 180.872 351.411 171.9 371 164C371.894 163.636 372.788 163.272 373.71 162.897C390.239 156.272 407.476 151.491 424.535 146.441C425.314 146.21 426.094 145.978 426.897 145.739C432.227 144.172 437.361 142.978 442.914 142.535C443.841 142.457 444.768 142.379 445.723 142.299C447.634 142.143 449.545 141.99 451.457 141.838C456.107 141.443 460.597 140.914 465.164 139.945C472.644 138.519 480.169 138.741 487.75 138.813Z" fill="#FED891"/>
<path d="M573 567C574.327 567.021 574.327 567.021 575.681 567.042C590.17 567.272 603.947 568.351 618 572C619.473 572.379 619.473 572.379 620.977 572.766C646.282 580.757 669.924 599.143 683 622C683.942 623.616 683.942 623.616 684.902 625.266C693.466 641.081 696.854 658.194 697.438 676C697.975 689.992 699.192 703.685 703.238 717.145C703.465 717.9 703.691 718.655 703.925 719.434C704.383 720.95 704.849 722.463 705.324 723.974C706.482 727.761 707.3 730.989 707 735C706.481 734.59 705.961 734.18 705.426 733.758C704.728 733.219 704.031 732.68 703.313 732.125C702.286 731.324 702.286 731.324 701.238 730.508C697.015 727.663 693.231 726.74 688.188 726.375C686.724 726.263 686.724 726.263 685.23 726.148C684.126 726.075 684.126 726.075 683 726C683.33 724.02 683.66 722.04 684 720C682.996 719.974 681.992 719.948 680.957 719.922C663.43 719.28 649.298 714.413 637.004 701.371C625.515 687.777 625.436 671.999 625 655C621.75 656.088 621.75 656.088 619 658C618.907 659.794 618.907 659.794 618.813 661.625C618.247 666.616 615.845 669.852 612 673C607.294 675.498 602.728 675.306 597.535 675.301C596.624 675.305 595.713 675.309 594.775 675.314C592.853 675.319 590.93 675.32 589.008 675.316C586.076 675.312 583.145 675.336 580.213 675.361C578.341 675.364 576.469 675.364 574.598 675.363C573.29 675.377 573.29 675.377 571.955 675.391C566.893 675.353 563.381 674.822 559 672C557.539 669.957 557.539 669.957 556.625 667.812C556.308 667.097 555.991 666.382 555.664 665.645C555.445 665.102 555.226 664.559 555 664C553.35 664 551.7 664 550 664C548.409 668.924 547.744 673.072 547.734 678.297C547.732 678.971 547.731 679.645 547.729 680.34C547.727 681.759 547.731 683.177 547.739 684.596C547.75 686.731 547.739 688.865 547.727 691C547.72 697.975 548.089 704.604 549.523 711.456C550.348 715.86 550.474 720.28 550.625 724.75C550.663 725.721 550.701 726.693 550.74 727.694C551.121 738.46 551.098 749.229 551 760C550.34 759.67 549.68 759.34 549 759C548.621 756.528 548.347 754.112 548.125 751.625C547.371 744.805 546.603 737.994 543 732C538.38 728.89 533.489 728.078 528 729C522.656 730.663 519.057 733.282 516.031 737.984C514.229 741.507 513.061 745.198 512 749C511.34 748.67 510.68 748.34 510 748C509.971 743.896 509.953 739.792 509.938 735.687C509.929 734.52 509.921 733.353 509.912 732.15C509.909 731.032 509.906 729.914 509.902 728.762C509.897 727.73 509.892 726.698 509.886 725.635C510 723 510 723 511 720C511.113 718.503 511.178 717.001 511.211 715.5C511.237 714.618 511.264 713.736 511.291 712.828C511.319 711.895 511.346 710.961 511.375 710C511.631 703.129 512.158 696.952 514.32 690.383C515.061 687.785 515.241 685.445 515.375 682.75C515.695 678.007 516.889 673.782 518.438 669.312C518.776 668.335 518.776 668.335 519.121 667.337C519.743 665.556 520.371 663.778 521 662C524.704 651.431 524.373 640.064 519.547 629.965C519.036 628.986 518.526 628.008 518 627C517.469 625.929 516.938 624.858 516.391 623.754C513.531 618.185 510.513 613.296 506.563 608.437C502.925 603.569 501.962 599.98 502.41 593.93C503.658 587.731 506.204 582.284 510.938 578C515.875 574.775 520.286 573.815 526.125 573.625C530.727 573.339 534.548 572.647 538.875 571.062C549.891 567.071 561.397 566.644 573 567Z" fill="#C594FD"/>
<path d="M384.101 374.877C387.885 374.875 391.668 374.871 395.451 374.867C401.476 374.861 407.5 374.861 413.525 374.866C415.786 374.867 418.047 374.866 420.308 374.864C423.424 374.861 426.54 374.865 429.656 374.871C430.58 374.869 431.504 374.867 432.456 374.865C433.295 374.867 434.134 374.87 434.998 374.873C436.092 374.874 436.092 374.874 437.208 374.874C439 375 439 375 441 376C442.992 376.086 444.988 376.104 446.982 376.093C448.257 376.089 449.533 376.085 450.847 376.08C452.269 376.07 453.691 376.06 455.113 376.05C456.605 376.043 458.096 376.037 459.588 376.031C462.805 376.018 466.023 376.002 469.241 375.984C474.335 375.956 479.429 375.939 484.523 375.924C486.267 375.919 488.011 375.914 489.756 375.909C491.066 375.905 491.066 375.905 492.403 375.901C504.265 375.865 516.126 375.819 527.987 375.753C535.984 375.709 543.981 375.678 551.978 375.664C556.209 375.656 560.439 375.641 564.669 375.608C568.655 375.576 572.64 375.564 576.626 375.566C578.083 375.563 579.54 375.554 580.996 375.537C590.86 375.426 599.297 376.238 607.375 382.313C612.778 387.844 614.896 393.961 616.688 401.313C616.905 402.185 617.123 403.057 617.348 403.956C618.889 410.535 619.401 416.825 619.55 423.56C619.778 429.922 621.569 435.184 623.805 441.145C625.275 445.424 625.677 449.699 626.062 454.188C626.615 460.569 627.752 466.047 629.988 472.09C633.158 481.207 634.371 490.881 635.473 500.43C635.95 503.659 636.687 506.72 637.511 509.875C638.401 513.744 638.773 517.687 639.25 521.625C640.266 529.503 641.953 536.945 644.188 544.563C648.466 559.261 648.466 559.261 647 567C646.34 567.99 645.68 568.98 645 570C637.981 569.847 633.098 566.715 628 562C623.947 556.377 623.04 549.225 621.719 542.563C621.049 539.241 620.275 535.971 619.438 532.688C619.066 531.218 619.066 531.218 618.688 529.719C618.271 528.073 617.855 526.427 617.438 524.781C615.971 518.639 615.223 512.422 614.465 506.16C614.184 503.108 614.184 503.108 613 501C612.727 498.982 612.482 496.961 612.25 494.938C611.489 489.321 610.263 484.149 608.562 478.75C606.284 471.45 604.904 464.233 603.746 456.684C602.586 449.172 601.004 441.741 599.464 434.301C599.035 432.173 598.638 430.043 598.254 427.906C597.079 421.693 595.853 416.7 592.086 411.551C591 410 591 410 590 407C588.156 405.913 588.156 405.913 586 405C584.013 403.768 582.056 402.496 580.098 401.219C575.035 398.277 570.585 397.674 564.793 397.586C563.566 397.557 563.566 397.557 562.314 397.527C559.605 397.466 556.897 397.42 554.188 397.375C552.294 397.338 550.4 397.3 548.506 397.262C533.484 396.982 518.462 396.897 503.438 396.875C502.374 396.872 501.31 396.87 500.214 396.867C497.204 396.861 494.194 396.863 491.184 396.867C490.28 396.865 489.377 396.863 488.447 396.861C484.087 396.742 484.087 396.742 480 398C478.132 398.096 476.26 398.128 474.389 398.129C472.627 398.134 472.627 398.134 470.829 398.139C469.555 398.137 468.281 398.135 466.969 398.133C465.016 398.134 465.016 398.134 463.023 398.136C460.266 398.137 457.509 398.135 454.751 398.13C451.214 398.125 447.676 398.128 444.139 398.134C440.769 398.138 437.4 398.135 434.031 398.133C432.757 398.135 431.483 398.137 430.171 398.139C428.996 398.136 427.822 398.133 426.611 398.129C425.574 398.129 424.536 398.128 423.467 398.127C421 398 421 398 419 397C416.142 396.901 413.309 396.864 410.451 396.871C409.124 396.868 409.124 396.868 407.77 396.865C404.836 396.861 401.903 396.864 398.969 396.867C396.936 396.867 394.904 396.866 392.871 396.864C388.607 396.863 384.343 396.865 380.08 396.87C374.605 396.875 369.13 396.872 363.655 396.866C359.457 396.863 355.259 396.864 351.06 396.866C349.041 396.867 347.022 396.866 345.003 396.864C342.185 396.861 339.367 396.865 336.549 396.871C335.288 396.868 335.288 396.868 334.002 396.865C329.868 396.773 329.868 396.773 326 398C324.01 398.014 322.02 397.965 320.031 397.887C318.214 397.841 318.214 397.841 316.359 397.795C313.817 397.724 311.275 397.634 308.734 397.522C298.817 397.328 292.721 399.46 285.562 406.344C278.773 415.713 278.087 423.393 279.864 434.631C280.055 435.742 280.055 435.742 280.25 436.875C280.381 437.664 280.513 438.453 280.648 439.265C281.416 443.592 282.418 447.494 284.125 451.563C286.273 456.832 286.523 461.833 286.584 467.461C286.701 472.801 287.79 477.599 289.156 482.754C290.64 488.462 291.832 494.234 293.062 500C293.318 501.181 293.574 502.362 293.838 503.578C295.041 509.195 296.158 514.799 297.059 520.473C297.725 524.612 298.621 528.467 300 532.438C302.806 541.198 303.918 549.835 304.375 559C304.877 567.186 307.356 574.403 310.098 582.07C310.93 584.772 311.316 587.068 311.5 589.875C311.746 593.608 312.474 597.046 313.412 600.666C317.225 615.796 319.553 630.757 319.723 646.371C319.798 652.291 320.374 657.308 322 663C322.188 666.438 322.188 666.438 322 669C321 670 321 670 319.18 670.09C313.831 669.736 310.348 668.703 306.496 664.887C300.423 657.228 299.992 647.275 298.723 637.926C298.009 632.797 296.86 627.829 295.613 622.805C295.037 620.171 294.747 617.685 294.562 615C294.159 609.817 292.589 605.182 290.988 600.258C289.166 594.252 288 588.279 288 582C290.437 580.375 290.437 580.375 293 579C295.229 574.542 294.23 568.458 294.25 563.563C294.271 562.309 294.291 561.055 294.312 559.764C294.318 558.564 294.323 557.365 294.328 556.129C294.337 555.026 294.347 553.924 294.356 552.787C294.235 549.995 294.235 549.995 292.614 548.181C290.02 546.283 287.139 545.308 284.156 544.16C280.343 542.108 279.242 539.734 277.902 535.672C277.568 534.368 277.247 533.06 276.937 531.75C276.766 531.046 276.595 530.341 276.418 529.615C275.139 524.124 274.345 518.67 273.712 513.067C272.35 501.025 270.04 489.338 266.714 477.682C265.422 473.064 264.624 468.631 264.233 463.848C264.092 461.908 264.092 461.908 263 460C262.789 458.131 262.582 456.262 262.405 454.39C261.715 447.197 260.531 440.844 258.012 434.035C256.421 429.265 255.574 424.383 254.656 419.449C254.151 416.796 253.561 414.233 252.875 411.625C251.892 407.23 251.527 402.795 251.187 398.313C251.122 397.587 251.057 396.861 250.99 396.114C250.68 391.214 251.303 388.105 254 384C255.973 382.137 255.973 382.137 258.062 380.688C258.755 380.196 259.447 379.705 260.16 379.199C266.668 374.957 275.836 375.836 283.395 375.684C284.328 375.663 285.261 375.642 286.223 375.62C289.419 375.553 292.616 375.494 295.812 375.438C297.501 375.406 297.501 375.406 299.224 375.374C327.514 374.874 355.808 374.889 384.101 374.877Z" fill="#7EAEFC"/>
<path d="M494 544C499.846 552.769 497.92 567.911 495.988 577.773C494.314 585.291 492.503 592.116 489 599C488.749 602.751 488.749 602.751 489 606C489.583 606.242 490.165 606.485 490.766 606.734C500.565 612.285 508.333 628.873 512 639C512.281 641.749 512.432 644.204 512.375 646.937C512.364 647.642 512.353 648.346 512.342 649.072C512.082 657.548 510.047 662.562 503.914 668.457C499.063 672.368 495.334 673.448 489.145 673.477C488.402 673.492 487.659 673.508 486.893 673.524C484.533 673.571 482.173 673.599 479.812 673.625C477.441 673.661 475.07 673.702 472.699 673.748C471.227 673.775 469.755 673.796 468.282 673.811C464.515 673.811 464.515 673.811 461 675C457.992 675.099 455.007 675.136 451.999 675.129C450.599 675.132 450.599 675.132 449.17 675.135C446.066 675.139 442.963 675.136 439.859 675.133C437.699 675.133 435.538 675.134 433.377 675.136C428.834 675.137 424.291 675.135 419.748 675.13C413.958 675.125 408.169 675.128 402.379 675.134C397.907 675.138 393.436 675.136 388.964 675.134C386.832 675.133 384.7 675.134 382.568 675.136C346.54 675.167 346.54 675.167 337.25 666.875C331.148 660.284 329.061 652.428 329.363 643.551C330.655 636.347 334.308 630.237 338 624C338.369 623.368 338.737 622.737 339.117 622.086C352.883 598.796 371.517 585.187 397 577C397.875 576.715 397.875 576.715 398.768 576.424C402.112 575.789 405.451 575.837 408.844 575.832C409.609 575.829 410.374 575.825 411.162 575.822C412.782 575.817 414.403 575.815 416.023 575.815C418.464 575.813 420.904 575.794 423.344 575.775C434.995 575.73 446.039 575.782 456.438 581.625C461.897 584.693 461.897 584.693 468 585C468.42 582.712 468.42 582.712 468 580C465.688 577.437 465.688 577.437 463 575C460.204 571.239 459.331 568.682 460 564C464.665 553.782 482.596 541.769 494 544ZM418 644C417.319 645.423 417.319 645.423 416.625 646.875C415 650 415 650 413 652C413.32 654.603 413.32 654.603 414 657C420.888 659.856 426.183 658.494 433 656C433.409 651.83 433.409 649.641 431.125 646.062C426.753 643.177 423.092 643.555 418 644ZM379 648C376.784 650.955 376 652.287 376 656C380.557 658.352 384.98 658.626 390 658C392.98 656.668 392.98 656.668 395 655C394.27 650.181 394.27 650.181 392 646C386.702 644.472 383.549 644.899 379 648Z" fill="#C494FD"/>
<path d="M719.875 323.25C730.469 329.796 736.872 338.46 743 349C743.42 349.686 743.84 350.372 744.273 351.078C747.824 357.384 749.461 364.738 751.35 371.678C751.805 373.306 752.293 374.924 752.804 376.534C755.013 383.78 755.507 390.509 755.437 398.063C755.428 399.249 755.419 400.436 755.41 401.658C754.819 431.902 740.569 461.586 720.195 483.617C718.197 485.786 716.281 488.002 714.375 490.25C707.979 497.552 707.979 497.552 704 500C702.68 500 701.36 500 700 500C700.522 494.778 701.763 490.841 704.09 486.148C704.394 485.527 704.699 484.905 705.013 484.264C705.979 482.296 706.957 480.336 707.937 478.375C708.911 476.406 709.882 474.436 710.851 472.465C711.731 470.68 712.617 468.899 713.504 467.119C715.568 462.817 717.173 458.706 718.254 454.059C718.468 453.145 718.683 452.232 718.904 451.291C719.121 450.349 719.339 449.408 719.562 448.438C720.001 446.561 720.44 444.685 720.879 442.809C721.07 441.982 721.262 441.155 721.459 440.303C721.807 438.82 722.172 437.341 722.557 435.868C724.403 428.078 723.074 420.247 720 413C718.68 413 717.36 413 716 413C715.986 414.235 715.972 415.47 715.957 416.742C715.672 428.851 713.875 439.536 710 451C709.714 451.883 709.428 452.766 709.133 453.676C706.376 461.276 702.215 468.357 698.402 475.465C696.154 479.668 694.076 483.932 692.133 488.285C690.727 490.413 689.334 491.058 687 492C682.674 485.793 682.806 478.928 682.812 471.625C682.812 470.843 682.811 470.062 682.81 469.256C682.858 463.898 683.291 458.684 684 453.375C686.982 430.761 681.955 414.113 668.493 395.834C665.455 391.698 662.978 387.723 661 383C660.569 382.007 660.139 381.015 659.695 379.992C654.612 368.073 652.099 353.886 655.976 341.094C657.148 338.248 658.435 335.647 660 333C660.577 331.886 661.155 330.773 661.75 329.625C677.026 311.803 700.769 313.562 719.875 323.25Z" fill="#8BFDD1"/>
<path d="M734.812 565.867C735.97 565.866 737.128 565.865 738.32 565.863C739.535 565.867 740.749 565.871 742 565.875C743.821 565.869 743.821 565.869 745.68 565.863C747.416 565.865 747.416 565.865 749.188 565.867C750.254 565.868 751.32 565.869 752.418 565.871C755 566 755 566 757 567C759.374 567.104 761.749 567.184 764.125 567.25C771.595 567.623 776.242 569.223 781.516 574.523C787.614 581.428 787.469 587.085 787 596C786.259 603.628 784.894 610.875 782.711 618.215C781.912 621.343 781.518 624.421 781.125 627.625C780.042 635.1 777.614 641.007 771.812 646C766.003 650.131 760.272 649.572 753.344 648.645C728.031 643.226 700.341 628.677 685.625 607.125C679.775 598.617 672.763 591.548 664.969 584.812C662.705 582.728 662.08 581.769 661.762 578.723C661.737 577.845 661.713 576.967 661.688 576.062C661.65 575.187 661.613 574.312 661.574 573.41C662 571 662 571 663.832 569.246C667.547 567.111 670.428 566.881 674.633 566.902C675.788 566.906 676.942 566.909 678.132 566.912C679.379 566.921 680.625 566.929 681.91 566.938C683.828 566.943 683.828 566.943 685.784 566.949C689.877 566.961 693.97 566.98 698.062 567C703.449 567.027 708.836 567.047 714.223 567.062C715.472 567.071 716.721 567.079 718.007 567.088C719.159 567.091 720.31 567.094 721.496 567.098C722.513 567.103 723.53 567.108 724.578 567.114C728.148 566.946 731.048 565.871 734.812 565.867Z" fill="#FD83A8"/>
<path d="M279.907 685.732C281.116 685.724 282.324 685.715 283.569 685.707C284.905 685.707 286.242 685.708 287.578 685.709C288.987 685.703 290.397 685.697 291.806 685.689C295.633 685.671 299.459 685.667 303.286 685.665C305.677 685.664 308.069 685.66 310.46 685.654C318.805 685.636 327.15 685.628 335.496 685.629C343.271 685.63 351.046 685.609 358.821 685.578C365.5 685.552 372.179 685.541 378.857 685.542C382.845 685.543 386.832 685.537 390.82 685.516C394.571 685.496 398.322 685.496 402.073 685.511C404.102 685.514 406.131 685.497 408.159 685.48C419.239 685.557 419.239 685.557 424 690C427.997 694.528 427.446 699.71 427.375 705.437C427.387 706.366 427.398 707.295 427.41 708.252C427.387 713.581 426.999 717.407 424 722C419.95 725.67 416.429 726.126 411.092 726.14C409.241 726.149 409.241 726.149 407.353 726.158C405.984 726.159 404.614 726.16 403.245 726.161C401.804 726.166 400.363 726.171 398.923 726.176C395.008 726.189 391.092 726.196 387.177 726.2C384.731 726.203 382.285 726.207 379.839 726.212C372.187 726.225 364.536 726.235 356.884 726.239C348.049 726.243 339.215 726.261 330.381 726.29C323.552 726.311 316.724 726.321 309.896 726.323C305.818 726.324 301.739 726.33 297.661 726.348C293.824 726.364 289.988 726.366 286.152 726.357C284.744 726.357 283.337 726.361 281.93 726.371C280.007 726.384 278.084 726.376 276.162 726.367C275.086 726.369 274.011 726.37 272.903 726.372C269.573 725.945 267.698 724.963 265 723C261.779 718.197 262.357 712.545 263.353 707.054C263.802 704.921 264.294 702.805 264.812 700.687C264.978 700.006 265.143 699.324 265.313 698.622C267.702 689.482 267.702 689.482 271.732 686.883C274.575 685.776 276.855 685.742 279.907 685.732Z" fill="#7FAFFD"/>
<path d="M192.93 634.797C193.837 634.794 194.744 634.791 195.679 634.788C200.455 634.774 205.231 634.764 210.006 634.76C214.93 634.754 219.854 634.73 224.778 634.702C228.583 634.683 232.388 634.678 236.194 634.677C238.011 634.673 239.829 634.665 241.646 634.652C244.17 634.635 246.694 634.637 249.218 634.644C249.966 634.634 250.714 634.625 251.485 634.616C256.512 634.657 256.512 634.657 258.966 636.385C260.375 638.586 260.332 640.089 260.25 642.688C260.234 643.496 260.219 644.304 260.203 645.137C259.996 648.057 259.619 650.937 259.241 653.838C258.823 657.59 258.715 661.355 258.562 665.125C257.384 689.299 257.384 689.299 252 695C248.38 697.456 244.718 697.264 240.5 697.188C239.19 697.181 237.881 697.175 236.531 697.168C233.2 697.087 229.918 696.812 226.601 696.488C217.585 695.696 208.549 695.942 199.507 696.021C194.004 696.064 188.503 696.058 183 696C182.169 695.994 181.339 695.988 180.483 695.983C178.011 695.954 175.542 695.889 173.07 695.813C172.318 695.807 171.566 695.801 170.791 695.795C167.146 695.644 165.313 695.274 162.535 692.847C160.753 689.542 160.471 687.382 160.375 683.641C160.029 675.927 159.081 668.391 158 660.75C157.822 659.447 157.644 658.144 157.461 656.801C156.859 650.722 156.859 650.722 155 645C154.813 642.31 154.914 639.703 155 637C156.959 635.041 160.634 635.592 163.317 635.45C164.076 635.408 164.835 635.366 165.618 635.323C174.718 634.859 183.819 634.816 192.93 634.797Z" fill="#FCB2C6"/>
<path d="M705 642C710.408 642.508 714.588 643.976 719.438 646.438C727.599 650.441 735.925 653.94 744.361 657.322C754.841 661.589 764.39 666.601 773 674C773.616 674.521 774.232 675.042 774.867 675.578C786.641 686.358 791.335 701.978 792.193 717.482C792.267 721.136 792.273 724.783 792.25 728.438C792.262 730.268 792.262 730.268 792.274 732.135C792.258 739.258 791.666 746.008 790.476 753.028C787.734 770.147 791.447 780.861 801 795C798.237 794.477 795.674 793.891 793 793C784.239 792.14 777.262 792.79 770 798C764.423 802.868 761.366 808.591 760.754 815.965C760.639 821.435 760.995 825.861 763 831C763.125 833.875 763.125 833.875 763 836C759.707 833.05 758.031 830.399 756.375 826.312C755.97 825.339 755.566 824.366 755.149 823.363C748.445 803.732 752.086 783.577 757 764C762.933 740.081 768.836 714.659 755.813 692.125C749.693 683.26 741.943 679.364 732.386 675.052C720.933 669.802 711.157 662.588 705.68 651C704.618 647.877 704.728 645.27 705 642Z" fill="#C493FD"/>
<path d="M161.155 581.86C162 581.854 162.845 581.848 163.716 581.842C164.64 581.841 165.565 581.84 166.517 581.839C167.493 581.834 168.469 581.829 169.474 581.824C172.708 581.809 175.942 581.802 179.176 581.797C181.421 581.791 183.667 581.785 185.913 581.78C190.625 581.769 195.337 581.763 200.048 581.76C206.084 581.754 212.12 581.73 218.156 581.702C222.797 581.683 227.437 581.678 232.077 581.676C234.302 581.673 236.527 581.665 238.752 581.652C241.867 581.635 244.981 581.637 248.095 581.644C249.013 581.634 249.931 581.625 250.877 581.616C255.987 581.649 259.61 582.083 264 585C266.977 589.465 266.38 593.761 266 599C265.398 601.02 264.727 603.021 264 605C263.498 608.027 263.063 611.056 262.66 614.098C261.924 617.333 261.033 619.376 259 622C247.493 627.719 229.965 625.155 217.47 625.13C214.149 625.125 210.827 625.13 207.506 625.137C205.393 625.136 203.28 625.135 201.168 625.133C200.175 625.135 199.183 625.137 198.16 625.139C196.791 625.134 196.791 625.134 195.395 625.129C194.592 625.129 193.789 625.128 192.962 625.127C191 625 191 625 189 624C186.733 623.986 184.465 624.035 182.199 624.113C180.816 624.145 179.432 624.176 178.049 624.205C175.869 624.254 173.691 624.312 171.512 624.398C169.407 624.477 167.305 624.517 165.199 624.551C163.939 624.589 162.679 624.626 161.381 624.665C158 624 158 624 155.106 621.244C153.219 618.338 152.352 616.904 152.109 613.547C152.04 612.763 151.97 611.979 151.898 611.172C151.849 610.373 151.8 609.573 151.75 608.75C151.559 603.204 151.559 603.204 150 598C149.066 588.353 149.066 588.353 151.812 584.375C154.974 582.388 157.5 581.874 161.155 581.86Z" fill="#C1DDFD"/>
<path d="M827.312 404.75C835.689 408.646 841.723 414.312 845.168 422.918C847.324 429.834 848.387 436.088 848.438 443.313C848.447 444.04 848.457 444.768 848.468 445.518C848.379 451.127 846.995 455.789 845 461C844.555 462.207 844.555 462.207 844.101 463.439C837.055 482.313 837.055 482.313 831 490C830.199 491.14 829.401 492.282 828.605 493.426C823.051 501.195 817.623 507.355 808 510C805.652 509.629 805.652 509.629 804 509C805.38 505.525 806.802 502.072 808.25 498.625C809.167 496.417 810.083 494.208 811 492C811.404 491.041 811.404 491.041 811.817 490.062C812.657 488.066 813.486 486.065 814.312 484.063C814.579 483.436 814.846 482.81 815.12 482.165C816.562 478.64 817.311 475.811 817 472C815.35 471.67 813.7 471.34 812 471C810.898 473.083 809.798 475.166 808.698 477.249C807.772 479.005 806.843 480.76 805.913 482.514C803.594 486.902 801.372 491.296 799.312 495.813C795.481 503.476 788.02 508.3 780 511C777.699 510.629 777.699 510.629 776 510C776.561 505.073 778.824 501.544 781.312 497.375C790.385 481.671 793.374 466.069 792 448C791.505 446.515 791.505 446.515 791 445C790.013 433.146 791.351 420.559 799 411C808.034 404.762 816.529 402.308 827.312 404.75Z" fill="#8BFCD0"/>
<path d="M241 379C242 380 242 380 242.125 382.5C242 385 242 385 241 386C240.122 396.366 241.772 406.193 243.771 416.315C244.252 418.758 244.707 421.204 245.16 423.652C246.566 431.053 248.109 437.862 251.17 444.781C252.666 448.78 252.857 452.894 253.125 457.125C253.571 463.327 254.35 468.997 256 475C256.32 476.436 256.635 477.873 256.938 479.312C257.671 482.687 258.551 485.992 259.5 489.312C262.378 499.829 263.67 510.075 263 521C260.52 523.48 253.956 522.234 250.625 522.25C249.024 522.281 249.024 522.281 247.391 522.312C246.367 522.318 245.344 522.323 244.289 522.328C243.348 522.337 242.406 522.347 241.436 522.356C238.549 521.934 237.759 521.274 236 519C232.859 513.914 232.171 509 231.438 503.187C230.68 497.465 229.796 491.867 228.489 486.244C227.466 481.545 226.843 476.773 226.145 472.018C225.572 468.243 224.931 464.554 223.965 460.859C223.039 457.157 222.496 453.6 222.063 449.812C221.488 445.139 220.747 440.577 219.625 436C218.132 429.828 216.938 423.622 215.813 417.375C215.634 416.421 215.455 415.467 215.27 414.484C212.298 397.644 212.298 397.644 215.801 392.203C216.63 391.559 217.459 390.914 218.313 390.25C219.676 389.177 219.676 389.177 221.066 388.082C222.035 387.395 223.003 386.708 224 386C224.958 385.303 225.916 384.605 226.902 383.887C231.814 380.525 234.881 378.449 241 379Z" fill="#7EAFFD"/>
<path d="M475.887 447.238C481.679 452.211 485.997 456.962 489 464C489.304 464.703 489.609 465.405 489.922 466.129C494.534 477.595 494.396 490.493 490 502C485.377 512.056 478.807 520.035 468.254 524.043C456.685 527.461 447.276 525.994 436.41 520.75C427.169 515.189 421.266 505.09 418 495C415.031 481.131 415.574 468.114 423.348 455.879C429.314 447.463 436.64 441.564 446.887 439.387C458.119 437.991 467.024 440.366 475.887 447.238ZM435.512 463.883C430.339 471.128 429.639 479.289 431 488C433.641 496.291 437.718 504.408 445.238 509.152C450.62 511.742 456.159 511.638 462 511C468.363 508.742 472.763 503.788 476 498C480.067 488.21 479.482 479.891 476 470C472.387 463.289 466.388 456.415 459 454C448.206 452.69 442.269 455.592 435.512 463.883Z" fill="#FF8080"/>
<path d="M568.743 685.807C569.705 685.791 570.666 685.775 571.657 685.758C576.048 685.714 580.44 685.673 584.832 685.65C587.147 685.633 589.462 685.606 591.777 685.568C595.119 685.513 598.459 685.491 601.801 685.476C603.348 685.442 603.348 685.442 604.926 685.408C612.954 685.431 612.954 685.431 616.59 688.335C619.268 691.296 620.679 693.962 622.25 697.625C627.181 708.29 634.802 716.162 645 722C644.67 723.32 644.34 724.64 644 726C634.03 726.093 624.059 726.164 614.089 726.207C609.459 726.228 604.829 726.256 600.2 726.302C595.732 726.345 591.265 726.369 586.798 726.379C585.093 726.387 583.388 726.401 581.683 726.423C579.296 726.452 576.91 726.456 574.522 726.454C573.464 726.476 573.464 726.476 572.384 726.498C569.064 726.47 567.299 726.227 564.623 724.195C562.344 721.113 561.286 717.828 560.25 714.187C560.035 713.443 559.821 712.699 559.6 711.933C557.676 704.73 556.833 697.414 558 690C560.786 686.162 564.251 685.875 568.743 685.807Z" fill="#80B0FE"/>
<path d="M349.5 433.125C353 434 353 434 354.701 435.779C359.119 443.333 355.096 456.619 354.066 464.836C352.569 475.907 352.569 475.907 353 487C356.185 489.123 356.985 489.249 360.633 489.23C361.965 489.228 361.965 489.228 363.324 489.225C364.248 489.212 365.173 489.2 366.125 489.187C367.057 489.187 367.989 489.186 368.949 489.186C373.308 489.554 373.308 489.554 377 488C377.388 480.875 376.003 474.51 374.422 467.598C373.182 461.869 372 455.848 373 450C374.305 448.247 374.305 448.247 376 447C379.437 446.5 379.437 446.5 383 447C386.883 450.764 387.932 454.657 388.852 459.82C388.997 460.561 389.141 461.301 389.291 462.064C389.749 464.415 390.188 466.77 390.625 469.125C391.071 471.487 391.522 473.848 391.981 476.207C392.264 477.672 392.541 479.137 392.809 480.604C393.456 483.986 394.06 486.091 396 489C397.134 489.309 398.269 489.619 399.437 489.937C403 491 403 491 405 492.75C406.45 496.013 406.167 497.636 405 501C403.98 501.713 402.961 502.426 401.91 503.16C399.96 504.715 399.099 505.428 398.667 507.914C398.779 510.143 399.032 512.294 399.375 514.5C400.488 522.174 400.488 522.174 398.227 526C396 528 396 528 393 528.5C389.551 527.925 388.409 527.518 386 525C385.118 522.215 384.752 519.392 384.375 516.5C383.62 510.449 383.62 510.449 381 505C378.219 504.77 375.662 504.724 372.887 504.812C371.677 504.829 371.677 504.829 370.443 504.847C366.986 504.896 363.531 504.98 360.075 505.061C357.554 505.116 355.033 505.152 352.512 505.187C351.734 505.212 350.957 505.237 350.156 505.263C345.555 505.325 342.658 504.856 339 502C332.291 492.778 338.04 471.767 339.273 461.426C340.003 455.224 340.448 449.061 340.691 442.82C341.018 439.837 341.622 437.663 343 435C346 433 346 433 349.5 433.125Z" fill="#FF8080"/>
<path d="M522.125 433.062C525.109 434.036 526.13 434.558 528 437C529.678 447.208 527.116 458.895 526 469.125C525.713 471.805 525.428 474.486 525.144 477.167C524.968 478.823 524.79 480.479 524.61 482.135C524.163 486.059 524.163 486.059 524 490C536.375 489.505 536.375 489.505 549 489C549.892 483.647 549.978 481.677 548.75 476.719C548.472 475.547 548.193 474.375 547.906 473.168C547.607 471.958 547.308 470.747 547 469.5C546.406 467.096 545.822 464.69 545.25 462.281C544.856 460.689 544.856 460.689 544.453 459.064C543.865 455.089 544.027 451.621 546.125 448.125C549.205 446.277 551.504 446.509 555 447C559.084 450.935 560.048 454.943 561.141 460.293C561.313 461.08 561.485 461.867 561.662 462.679C562.204 465.179 562.727 467.683 563.25 470.187C563.616 471.882 563.983 473.577 564.352 475.271C567 487.556 567 487.556 567 490C568.258 490.082 569.516 490.165 570.813 490.25C573.645 490.622 574.776 490.823 577.063 492.625C578.441 496.118 577.977 498.418 577 502C575.063 503.937 575.063 503.937 573 505C572.34 505 571.68 505 571 505C570.925 509.718 570.975 514.094 571.75 518.75C572.147 522.086 572.053 522.892 570.5 526.062C568 528 568 528 564.5 528.625C561 528 561 528 558.887 525.973C556.539 522.274 555.944 519.091 555.313 514.812C554.653 509.76 554.653 509.76 553 505C551.845 505.001 550.69 505.002 549.499 505.003C545.203 505 540.908 504.957 536.612 504.902C534.755 504.884 532.897 504.877 531.04 504.88C528.365 504.883 525.694 504.847 523.02 504.805C522.192 504.814 521.365 504.823 520.513 504.832C516.073 504.721 514.463 504.394 510.964 501.415C508.649 497.39 508.415 495.171 508.551 490.551C508.57 489.823 508.589 489.095 508.608 488.345C508.926 479.247 509.846 470.18 510.862 461.138C511.192 458.148 511.488 455.156 511.783 452.162C511.993 450.247 512.204 448.332 512.418 446.418C512.502 445.529 512.585 444.641 512.671 443.726C513.177 439.541 513.468 437.574 516.404 434.407C519 433 519 433 522.125 433.062Z" fill="#FF8080"/>
<path d="M476.338 685.77C477.816 685.757 479.294 685.739 480.772 685.716C482.87 685.686 484.968 685.676 487.066 685.672C488.891 685.658 488.891 685.658 490.752 685.644C494.305 686.033 496.163 686.866 499 689C501.44 693.119 501.385 697.514 501.375 702.188C501.373 702.94 501.372 703.692 501.37 704.467C501.239 710.447 500.408 715.93 497 721C492.791 724.759 488.46 726.252 482.858 726.243C481.861 726.246 480.864 726.249 479.836 726.252C478.771 726.245 477.706 726.238 476.609 726.23C474.959 726.23 474.959 726.23 473.275 726.229C470.955 726.226 468.635 726.218 466.315 726.206C462.749 726.187 459.183 726.185 455.617 726.186C453.365 726.181 451.112 726.175 448.859 726.168C447.787 726.167 446.714 726.166 445.608 726.165C444.624 726.158 443.639 726.152 442.624 726.145C441.753 726.141 440.882 726.138 439.985 726.134C438 726 438 726 437 725C436.887 722.357 436.836 719.741 436.832 717.098C436.829 716.305 436.825 715.512 436.822 714.695C436.817 713.014 436.815 711.334 436.815 709.654C436.813 707.077 436.794 704.5 436.775 701.924C436.773 700.294 436.771 698.665 436.77 697.035C436.762 696.261 436.755 695.487 436.748 694.69C436.771 689.229 436.771 689.229 439 687C442.048 686.672 445.004 686.479 448.063 686.375C449.005 686.339 449.948 686.303 450.92 686.267C459.389 685.985 467.864 685.837 476.338 685.77Z" fill="#7FAFFD"/>
<path d="M804 525C803.269 529.149 802.512 533.294 801.75 537.438C801.545 538.602 801.34 539.767 801.129 540.967C799.313 550.735 796.052 558.519 791 567C787.513 565.322 784.335 563.33 781.098 561.219C776.168 558.355 772.073 557.702 766.375 557.438C759.289 557.096 759.289 557.096 756 556C753.813 555.905 751.623 555.869 749.434 555.867C747.499 555.865 747.499 555.865 745.526 555.863C744.855 555.865 744.184 555.868 743.494 555.87C741.442 555.875 739.39 555.87 737.338 555.863C736.05 555.865 734.761 555.866 733.434 555.867C732.248 555.868 731.063 555.869 729.842 555.871C727.052 555.805 727.052 555.805 725 557C722.667 557.04 720.333 557.043 718 557C717.117 554.616 716.959 553.191 717.5 550.688C722.896 541.02 732.472 536.246 742.582 532.895C751.848 530.47 760.632 529.784 770.188 529.688C779.874 529.488 788.036 528.484 797.059 524.961C800.143 523.953 801.033 524.085 804 525Z" fill="#FCD691"/>
<path d="M202.993 705.966C211.88 705.919 220.731 706.095 229.604 706.58C231.012 706.653 232.421 706.715 233.83 706.768C235.913 706.847 237.993 706.957 240.074 707.074C241.287 707.132 242.499 707.189 243.749 707.249C247.85 708.196 249.441 709.706 252 713C252 717.799 250.833 721.146 248 725C245.318 726.341 243.13 726.215 240.129 726.316C238.925 726.358 237.721 726.4 236.48 726.444C235.188 726.483 233.895 726.522 232.562 726.562C231.572 726.594 231.572 726.594 230.561 726.626C220.622 726.938 210.692 727.209 200.749 727.037C198.653 727.009 196.558 726.998 194.462 726.994C190.515 726.984 186.571 726.933 182.625 726.875C181.357 726.878 180.089 726.88 178.783 726.883C170.007 726.693 170.007 726.693 167.077 724.677C164.625 721.793 163.121 718.905 162.625 715.187C163.133 710.865 164.659 709.706 168 707C171.159 706.34 171.159 706.34 174.707 706.293C176.017 706.264 177.328 706.235 178.678 706.205C180.056 706.199 181.434 706.193 182.812 706.187C184.148 706.164 185.483 706.139 186.818 706.111C190.201 706.048 193.582 706.021 196.965 706.008C198.975 706 200.984 705.983 202.993 705.966Z" fill="#BFDCFC"/>
<path d="M733.457 686.684C735.466 687.639 737.194 688.704 739 690C739.602 690.389 740.204 690.779 740.824 691.18C747.306 695.932 751.493 704.166 753 712C753.374 716.116 753.458 718.265 751.25 721.813C745.836 727.077 740.185 726.367 733 726.375C731.907 726.4 730.814 726.424 729.687 726.449C728.636 726.453 727.584 726.457 726.5 726.461C725.541 726.469 724.582 726.477 723.594 726.486C720.243 725.858 719.116 724.619 717 722C712.77 713.37 708.447 702.756 710 693C714.833 684.307 724.58 684.214 733.457 686.684Z" fill="#7EAEFC"/>
<path d="M277 600C279.501 600.962 280.742 601.492 281.977 603.926C283.531 609.646 284.579 615.306 285.399 621.176C286.271 626.721 287.46 632.194 288.614 637.687C289.559 642.325 290.207 646.756 290.375 651.5C290.675 657.224 292.882 661.396 295.723 666.309C297.078 669.165 297.346 670.882 297 674C294.667 676.333 288.764 675.429 285.519 675.46C281.171 675.374 278.031 675.209 274.563 672.312C267.607 664.339 269.94 653.662 270.609 643.772C270.697 642.548 270.785 641.324 270.875 640.062C270.966 638.79 271.057 637.518 271.151 636.207C271.692 628.821 272.242 621.436 272.938 614.062C273 613.319 273.062 612.576 273.127 611.811C273.587 607.304 274.747 603.923 277 600Z" fill="#7DADFB"/>
<path d="M405 634.313C405.699 634.285 406.397 634.257 407.117 634.229C409.993 634.242 412.305 634.443 414.594 636.277C416.806 638.818 417.952 640.737 418.562 644.062C417.877 647.645 416.321 649.244 414 652C414 653.32 414 654.64 414 656C419.948 658.466 424.163 657.589 430.312 656.312C431.199 656.209 432.086 656.106 433 656C433.66 656.66 434.32 657.32 435 658C434.787 660.769 434.403 662.481 432.688 664.688C426.82 669.251 420.145 668.71 413 668C410.369 666.931 408.388 665.575 406 664C403.271 664 401.627 664.648 399.266 665.973C393.787 669.03 389.262 670.011 383 669C379.091 667.606 375.939 665.939 373 663C372.688 660.5 372.688 660.5 373 658C376 656 376 656 378.125 656.375C379.548 656.684 379.548 656.684 381 657C382.519 657.101 384.041 657.16 385.562 657.188C386.306 657.202 387.05 657.216 387.816 657.23C390.264 656.972 391.879 656.217 394 655C393.344 651.39 393.344 651.39 392 648C391.305 640.934 391.305 640.934 394.023 637.281C397.704 634.461 400.536 634.218 405 634.313Z" fill="#033276"/>
<path d="M627 588C627.917 588.38 628.833 588.76 629.777 589.152C640.183 593.891 652.656 602.609 658 613C657.695 615.793 657.695 615.793 657 618C654.781 618.746 654.781 618.746 652 619C649.781 617.41 649.781 617.41 647.5 615.062C627.6 596.104 600.532 590.099 573.932 589.429C573.062 589.401 572.193 589.373 571.297 589.344C570.517 589.325 569.736 589.306 568.933 589.287C567 589 567 589 565 587C565.367 584.065 565.864 583.136 568 581C587.066 575.9 609.308 580.514 627 588Z" fill="#053378"/>
<path d="M351.176 545.656C354.958 546.117 357.902 547.685 361.188 549.5C361.845 549.857 362.503 550.215 363.18 550.583C369.878 554.323 376.691 558.536 381 565C381.25 568.062 381.25 568.062 381 571C378.68 573.32 377.172 573.67 374.063 574.625C368.395 576.594 364.117 579.522 359.41 583.195C354.213 587.087 354.213 587.087 350.375 586.812C348 586 348 586 346 583C342.913 573.814 342.074 560.227 345.375 551.062C347.975 546.162 347.975 546.162 351.176 545.656Z" fill="#C393FC"/>
<path d="M813 686C816.519 688.161 820.291 690.759 821.581 694.836C822.352 698.819 822.269 702.829 822.312 706.875C822.341 707.761 822.37 708.646 822.4 709.559C822.455 715.223 821.867 718.555 818 723C814.305 725.463 812.367 725.39 808 725C801.904 720.197 801.338 710.45 800.355 703.297C799.222 692.785 799.222 692.785 800 689C803.797 685.186 807.902 684.817 813 686Z" fill="#7DAEFC"/>
<path d="M596.32 600.734C612.405 600.824 625.802 606.826 637.363 617.902C639.256 620.328 639.813 621.94 640 625C638 627 638 627 635.77 627.383C632.053 626.869 629.657 625.012 626.688 622.875C616.911 616.215 606.08 612.671 594.723 609.543C593 609 593 609 592 608C591.812 605.562 591.812 605.562 592 603C594 601 594 601 596.32 600.734Z" fill="#073479"/>
<path d="M223.441 647.929C235.843 647.603 235.843 647.603 240 650C242.324 650.697 244.657 651.369 247 652C247.043 653.666 247.041 655.334 247 657C244.934 659.066 240.534 658.164 237.688 658.168C236.845 658.171 236.002 658.175 235.133 658.178C233.341 658.183 231.549 658.186 229.756 658.185C227.039 658.188 224.323 658.206 221.605 658.225C219.862 658.228 218.118 658.23 216.375 658.231C215.572 658.238 214.768 658.245 213.94 658.252C208.399 658.23 203.357 657.403 198 656C197.375 653.625 197.375 653.625 197 651C199.426 648.574 200.147 648.714 203.48 648.586C204.846 648.528 204.846 648.528 206.239 648.468C207.212 648.437 208.185 648.407 209.188 648.375C210.67 648.32 210.67 648.32 212.183 648.264C215.935 648.134 219.688 648.038 223.441 647.929Z" fill="#0F3878"/>
<path d="M380.625 615.188C385.061 617.57 388.242 619.827 389.938 624.688C389.958 625.451 389.979 626.214 390 627C389.34 627.66 388.68 628.32 388 629C381.423 628.423 381.423 628.423 380 627C378.045 626.875 376.084 626.824 374.125 626.813C373.055 626.798 371.985 626.784 370.883 626.77C367.802 626.781 367.802 626.781 365 629C362.438 629.25 362.438 629.25 360 629C359.34 628.34 358.68 627.68 358 627C358.173 623.884 358.672 622.373 360.742 620.016C361.446 619.433 362.15 618.85 362.875 618.25C363.574 617.657 364.272 617.064 364.992 616.453C369.885 612.912 375.101 613.378 380.625 615.188Z" fill="#09357A"/>
<path d="M437 614C442.227 615.765 446.648 618.566 450 623C449.812 625.813 449.812 625.813 449 628C447.742 628.021 446.484 628.041 445.188 628.063C444.48 628.074 443.772 628.086 443.043 628.098C441 628 441 628 438 627C436.357 626.882 434.709 626.825 433.062 626.813C431.781 626.791 431.781 626.791 430.473 626.77C427.838 627.015 426.303 627.756 424 629C421.312 629.188 421.312 629.188 419 629C418 628 418 628 417.938 624.813C419.411 619.527 422.453 617.771 427 615C430.233 613.384 433.495 613.557 437 614Z" fill="#08357A"/>
<path d="M220.125 665.734C220.828 665.732 221.53 665.73 222.254 665.728C223.741 665.727 225.227 665.731 226.713 665.739C228.991 665.75 231.269 665.739 233.547 665.726C234.99 665.728 236.432 665.73 237.875 665.734C239.192 665.737 240.51 665.739 241.867 665.741C245 666 245 666 247 668C246.625 670.625 246.625 670.625 246 673C239.829 674.804 234.287 675.308 227.875 675.25C226.574 675.262 226.574 675.262 225.246 675.273C220.432 675.259 216.519 674.867 212 673C211.375 670.625 211.375 670.625 211 668C213.904 665.095 216.068 665.741 220.125 665.734Z" fill="#103979"/>
<path d="M397 700.75C397.712 700.729 398.423 700.709 399.156 700.688C402.476 700.663 404.628 700.775 407.5 702.516C407.995 703.005 408.49 703.495 409 704C408.25 708.75 408.25 708.75 406 711C399.861 713.128 392.396 712.772 386.312 710.813C384 709 384 709 383 706.438C383 704 383 704 385 702C388.835 700.562 392.957 700.779 397 700.75Z" fill="#06387B"/>
<path d="M354.938 700.688C355.992 700.683 355.992 700.683 357.068 700.678C361.105 700.719 364.446 701.013 368 703C368.812 705.625 368.812 705.625 369 708C362.314 712.047 357.854 712.563 350 712C346.312 710.813 346.312 710.813 344 709C343.125 706.313 343.125 706.313 343 704C346.596 700.46 350.164 700.579 354.938 700.688Z" fill="#05377A"/>
<path d="M708.688 377.375C712 378 712 378 713.695 379.902C716.939 384.737 719.139 388.647 719.188 394.562C719.202 395.348 719.216 396.133 719.231 396.941C719 399 719 399 717 401C714.688 401.125 714.688 401.125 712 400C706.834 393.786 704.526 387.067 705 379C706 378 706 378 708.688 377.375Z" fill="#023676"/>
<path d="M453 382C454.875 383.063 454.875 383.063 456 385C455.687 388.688 455.687 388.688 455 392C448.575 393.334 448.575 393.334 446.062 391.875C444.639 389.364 444.573 387.845 445 385C447.144 381.728 449.232 381.435 453 382Z" fill="#023578"/>
</svg>
