<svg width="1000" height="1000" viewBox="0 0 1000 1000" fill="none" xmlns="http://www.w3.org/2000/svg">
<path d="M445.703 230.273C454.098 238.251 457.378 244.275 457.861 255.898C457.886 257.107 457.911 258.316 457.937 259.563C457.97 260.814 458.002 262.065 458.035 263.354C458.294 280.024 454.431 294.695 446.062 309.125C441.164 318.779 445.513 330.103 448.625 339.789C448.857 340.496 449.089 341.203 449.328 341.931C449.957 343.869 450.543 345.821 451.125 347.773C453.927 356.589 458.213 362.864 464 370C465.366 371.867 466.72 373.741 468.062 375.625C469.372 377.419 470.684 379.211 472 381C472.624 381.856 473.248 382.712 473.891 383.594C481.338 393.402 490.085 399.833 501.016 405.375C503.638 406.803 505.682 408.26 507.937 410.188C516.018 416.546 527.048 417.731 537 417C538.303 413.09 537.585 409.809 537.062 405.812C535.112 388.62 533.853 372.122 541.089 356.046C542.027 353.938 542.879 351.808 543.723 349.66C547.199 341.059 551.487 333.18 556.5 325.375C557.021 324.558 557.543 323.741 558.08 322.899C571.276 303.006 596.645 287.658 619.786 282.645C622.847 282.029 625.919 281.504 629 281C630.164 280.801 630.164 280.801 631.352 280.598C633.574 280.284 635.758 280.118 638 280C639.16 279.936 640.32 279.871 641.516 279.805C667.855 278.842 690.331 286.752 711.863 301.559C713.271 302.508 714.707 303.419 716.168 304.285C724.409 309.288 731.632 317.001 737 325C737 325.66 737 326.32 737 327C741.429 328.01 744.695 328.706 748.75 326.375C753.004 322.974 753.576 318.166 754.914 313.109C756.916 307.376 760.688 305.132 765.937 302.563C770.907 301.65 775.066 302.146 779.687 304.188C783.483 307.162 786.449 310.349 788 315C788.564 320.693 788.307 325.149 785 330C782.573 332.388 780.063 334.468 777 336C774.959 335.939 772.918 335.875 770.879 335.782C763.323 335.49 757.702 335.47 751.434 340.199C749.504 342.623 749.157 343.875 749 347C749.55 350.181 750.394 353.264 751.25 356.375C751.721 358.176 752.19 359.979 752.656 361.781C752.887 362.668 753.118 363.555 753.355 364.469C756.942 378.555 759.453 392.011 755.875 406.309C755.251 408.942 754.754 411.433 754.375 414.098C752.593 426.496 748.681 437.326 742 448C744.625 448.054 747.249 448.094 749.875 448.125C750.994 448.15 750.994 448.15 752.137 448.176C754.092 448.193 756.047 448.103 758 448C758.66 447.34 759.32 446.68 760 446C765.948 445.385 771.222 446.338 777 447.75C777.652 447.907 778.304 448.064 778.975 448.225C787.617 450.468 794.882 454.25 802.062 459.5C802.784 460.019 803.506 460.538 804.249 461.073C806.508 462.704 808.756 464.349 811 466C811.734 466.539 812.467 467.077 813.223 467.632C815.362 469.207 817.495 470.788 819.625 472.375C820.263 472.85 820.901 473.325 821.559 473.814C824.675 476.16 827.629 478.563 830.508 481.195C833.834 484.079 836.985 485.302 841.25 486.5C848.044 488.539 853.865 491.422 860 495C864.012 497.12 868.074 499.039 872.25 500.812C891.501 509.361 902.841 521.033 910.426 540.44C916.157 556.084 911.711 570.168 905 585C902.668 589.058 899.586 592.022 896 595C895.183 595.768 894.365 596.537 893.523 597.328C888.921 601.631 884.099 605.582 879.074 609.379C877.155 610.878 875.404 612.465 873.625 614.125C869.311 617.874 864.207 619.774 859 622C847.525 627.041 839.501 633.472 832.012 643.492C811.566 668.98 782.083 682.612 750.051 686.809C741.971 687.561 734.226 686.684 726.25 685.375C724.628 685.11 724.628 685.11 722.974 684.839C707.798 682.236 692.32 679.032 679 671C678.05 670.432 677.1 669.863 676.121 669.277C673.371 667.575 670.678 665.814 668 664C667.233 663.483 666.466 662.966 665.676 662.434C661.365 659.382 658.798 656.546 656 652C653.967 649.428 651.892 646.895 649.805 644.367C648.222 642.292 647.061 640.373 646 638C645.732 638.897 645.464 639.794 645.187 640.719C642.258 650.048 638.487 658.517 633.945 667.165C632.597 669.783 631.375 672.459 630.125 675.125C626.862 681.651 622.653 687.361 618.319 693.2C617.001 694.998 615.72 696.817 614.449 698.648C610.006 705.035 605.443 711.03 600.105 716.719C597.891 719.042 597.891 719.042 595.762 721.969C592.683 725.695 588.826 727.723 584.625 730C580.246 732.398 576.173 734.71 572.449 738.062C568.994 741.154 565.372 743.062 561.187 745C559.766 745.689 558.345 746.38 556.926 747.074C556.247 747.405 555.569 747.735 554.87 748.076C548.702 751.125 543.31 754.699 538.035 759.087C530.817 765.054 524.145 768.513 515 771C513.383 771.456 513.383 771.456 511.734 771.922C506.217 773.391 500.712 774.662 495 775C493.939 775.064 492.878 775.129 491.785 775.195C481.708 775.524 473.516 774.191 465.562 767.688C460.523 762.885 457.305 757.479 456.687 750.438C456.803 742.596 460.465 735.412 466 730C468.325 728.346 470.68 726.793 473.109 725.297C475.136 724.131 475.136 724.131 476 722C476.103 720.251 476.183 718.501 476.25 716.75C476.635 712.535 477.089 709.427 480.211 706.277C488.939 700.046 498.496 698.196 509 699C512.36 699.7 515.651 700.517 518.957 701.441C522.552 702.101 524.517 702.177 528 701C530.611 698.886 532.785 696.455 535 693.938C535.59 693.294 536.181 692.65 536.789 691.986C547.949 679.658 554.363 667.333 558 651C558.34 649.503 558.34 649.503 558.687 647.977C560.389 639.349 560.187 630.751 560 622C553.369 623.06 549.972 626.765 545.879 631.773C542.01 636.213 537.732 639.367 532.812 642.562C531.918 643.148 531.023 643.734 530.101 644.337C497.88 665.007 497.88 665.007 480.258 668.055C474.757 669.1 469.716 671.371 464.562 673.5C457.542 676.381 450.763 678.777 443.312 680.25C427.602 683.386 412.588 690.414 403.25 703.957C392.828 721.713 387.579 742.116 383 762C382.733 763.113 382.465 764.225 382.19 765.371C380.74 771.46 379.47 777.461 378.812 783.688C378.733 784.406 378.655 785.124 378.573 785.865C377.371 795.435 377.371 795.435 378.988 804.773C382.586 816.246 380.138 829.401 375 840C370.919 847.062 365.706 850.5 358.562 854.188C357.591 854.703 356.62 855.218 355.619 855.749C333.565 867.182 303.806 872.071 279.648 864.445C263.093 857.887 248.616 849.183 241.16 832.348C238.566 824.862 239.266 820.001 242.5 812.812C247.268 804.121 254.167 799.643 262.48 794.57C265.14 792.976 265.14 792.976 267.937 790.688C271.765 788.579 275.192 788.103 279.492 787.5C283.52 786.926 287.504 786.196 291.5 785.438C292.182 785.31 292.865 785.183 293.568 785.052C296.738 784.457 299.884 783.835 303 783C304.66 773.207 302.832 764.451 300.535 754.887C295.752 734.266 295.773 714.154 297.726 693.185C298.018 689.786 298.18 686.399 298.3 682.991C298.841 669.029 303.245 657.087 310 645C310.466 644.165 310.931 643.331 311.411 642.471C325.109 618.039 325.109 618.039 331.187 610.75C335.485 605.93 335.485 605.93 337.012 599.91C334.95 596.018 329.905 595.449 325.934 594.168C306.591 588.328 285.496 585.645 267.127 595.486C264.044 597.207 261.004 598.993 257.979 600.813C256.307 601.816 254.612 602.783 252.914 603.742C248.186 606.434 244.317 609.413 240.32 613.086C237.421 615.477 234.306 617.45 231.125 619.438C225.061 623.242 219.452 627.344 214 632C213.11 632.744 212.221 633.488 211.305 634.254C202.973 641.432 199.734 647.233 198 657.938C196.478 667.285 194.319 674.573 187 681C186.216 681.701 185.432 682.402 184.625 683.125C172.387 691.866 155.305 689.848 141.179 687.538C127.934 685.066 116.394 678.856 104.562 672.625C103.568 672.108 102.573 671.591 101.548 671.059C94.4567 667.215 88.7793 662.601 82.9999 657C82.157 656.203 81.3142 655.406 80.4457 654.585C73.8889 648.349 67.7598 641.247 66.6288 631.949C66.4521 623.27 67.7204 618.66 73.539 612.324C86.4822 599.964 106.831 600.594 123.473 600.797C127.415 600.894 131.117 601.285 135 602C137.352 602.114 139.707 602.175 142.062 602.188C143.25 602.202 144.437 602.216 145.66 602.23C148.995 602 151.129 601.704 154 600C155.178 597.665 155.178 597.665 156 595C157.051 593.334 158.137 591.689 159.25 590.062C161.965 585.907 163.949 581.872 165.75 577.25C170.262 566.26 177.782 557.278 185.789 548.617C188.838 545.008 191.52 541.166 194.25 537.312C205.177 521.936 217.256 508.795 232 497C232.791 496.33 233.583 495.659 234.398 494.969C239.208 490.942 244.204 487.489 249.562 484.25C250.163 483.885 250.764 483.52 251.384 483.145C259.21 478.527 266.003 475.408 275.187 475.25C276.478 475.212 276.478 475.212 277.794 475.173C279.613 475.125 281.431 475.086 283.25 475.056C285.94 475.001 288.624 474.891 291.312 474.773C304.422 474.327 316.339 476.266 329.093 479.144C333.699 480.153 338.318 481.085 342.941 482.008C344.701 482.361 346.46 482.713 348.219 483.066C350.84 483.592 353.46 484.117 356.082 484.639C371.747 487.769 371.747 487.769 379.039 490.428C382.845 491.538 386.748 491.537 390.687 491.625C395.903 491.79 400.847 492.135 406 493C425.442 493.887 445.326 492.657 464 487C463.991 484.674 463.991 484.674 463 482C460.885 480.111 458.859 478.506 456.562 476.875C446.736 469.511 439.579 461.168 432.988 450.812C431.062 448.088 429.1 446.094 426.625 443.875C411.448 429.086 399.425 397.609 396.219 376.793C396.099 376.041 395.979 375.289 395.855 374.514C395.679 373.362 395.679 373.362 395.5 372.188C394.789 367.604 394.04 363.095 392.91 358.594C391.742 353.479 391.822 348.534 391.937 343.313C392.776 325.26 392.776 325.26 385.25 309.563C377.12 298.926 372.736 287.44 374 274C376.023 267.374 379.294 262.843 385 259C386.031 258.526 387.062 258.051 388.125 257.563C393.628 254.572 395.178 249.689 397.437 244.125C400.723 236.055 404.354 228.711 412 224C423.556 219.168 436.444 222.486 445.703 230.273ZM649 332C646.81 333.372 646.81 333.372 645 335C645.565 339.551 647.527 342.909 649.875 346.75C657.215 359.182 659.078 371.64 658 386C656.717 390.568 654.614 394.08 652 398C652.283 401.311 652.283 401.311 654 404C656.389 404.423 656.389 404.423 659 404C665.805 397.875 669.02 389.913 670 381C670.091 362.426 665 346.708 652 333C651.01 332.67 650.02 332.34 649 332ZM623 410C622.927 412.555 622.927 412.555 624 415C627.572 417.382 630.838 417.158 635 416.473C638.059 415.75 640.403 414.773 643 413C643.969 410.416 643.969 410.416 644 408C638.574 404.383 627.744 405.256 623 410ZM509 504C507.824 505.237 507.824 505.237 506.625 506.5C504.221 510.199 502.711 513.513 503.234 518.016C505.039 524.405 509.462 526.881 515 530C515.803 530.55 516.606 531.101 517.434 531.668C522.864 534.487 529.276 532.856 534.898 531.09C538.946 529.339 542.224 527.684 544.125 523.562C545.688 517.528 546.033 511.137 545 505C542.534 500.97 539.135 499.51 534.937 497.625C524.176 495.917 516.339 495.159 509 504ZM853.25 513C851.252 516.197 852.271 519.472 853 523C853.654 524.978 854.408 526.896 855.172 528.834C858.887 538.553 859.741 548.142 860.062 558.438C860.089 559.119 860.115 559.8 860.142 560.502C860.459 569.553 859.544 577.333 857 586C856.568 588.118 856.162 590.242 855.812 592.375C855.654 593.311 855.495 594.247 855.332 595.211C854.98 598.166 854.943 601.027 855 604C857.242 604.86 857.242 604.86 860 605C862.67 603.467 862.67 603.467 865.187 601.125C866.147 600.295 867.106 599.465 868.094 598.609C869.053 597.748 870.012 596.887 871 596C871.877 595.221 872.753 594.443 873.656 593.641C875.327 592.145 876.99 590.64 878.644 589.125C880.841 587.143 883.097 585.261 885.375 583.375C893.516 576.15 896.308 565.214 897.324 554.617C896.383 544.122 890.569 531.757 882.621 524.855C868.616 514.373 868.616 514.373 853.25 513Z" fill="#013275"/>
<path d="M199.75 179.25C200.791 179.359 201.831 179.468 202.903 179.581C207.972 180.193 212.476 181.052 217.226 182.945C224.449 185.767 231.992 186.59 239.625 187.625C242.514 188.029 245.401 188.439 248.289 188.852C248.977 188.949 249.665 189.046 250.373 189.146C254.644 189.762 258.811 190.573 263.005 191.576C267.391 192.509 271.879 192.798 276.338 193.211C280.727 193.651 284.817 194.413 289.076 195.549C292.185 196.278 295.32 196.443 298.5 196.687C307.596 197.55 316.463 199.428 325.375 201.375C326.058 201.522 326.741 201.669 327.444 201.82C353.582 207.476 353.582 207.476 360 215C362.767 219.332 362.822 225.02 362 230C360.83 232.757 359.431 235.371 358 238C352.55 248.342 347.941 258.844 343.556 269.682C339.254 280.287 334.503 290.59 329.364 300.818C326.334 306.917 323.936 312.929 321.881 319.421C320.856 322.422 319.497 324.921 317.75 327.562C314.099 333.508 311.473 339.682 308.86 346.129C306.808 351.177 304.589 355.955 301.715 360.602C300.533 364.567 300.783 368.055 302 372C303.933 374.911 306.299 377.155 308.875 379.5C309.56 380.151 310.246 380.802 310.952 381.472C317.783 387.892 324.883 393.788 332.516 399.234C356.02 416.05 356.02 416.05 358.797 424.395C359.237 431.385 355.858 438.589 351.687 444C343.273 450.262 331.819 448.1 322.066 446.728C316.803 445.948 311.557 445.078 306.312 444.188C305.571 444.063 304.829 443.939 304.064 443.81C294.953 442.267 286.059 440.36 277.161 437.861C272.853 436.688 268.831 435.904 264.371 435.746C249.337 435.009 234.792 432.774 220 430.062C219.036 429.887 218.072 429.712 217.078 429.532C214.28 429.021 211.483 428.499 208.687 427.973C207.445 427.743 207.445 427.743 206.177 427.508C201.071 426.525 196.166 425.214 191.215 423.62C188.011 422.723 184.941 422.661 181.625 422.625C163.054 421.947 147.059 416.051 133 404C132.287 403.41 131.574 402.819 130.84 402.211C127.422 399.326 124.45 396.408 121.625 392.938C119.139 389.993 116.892 388.232 113.492 386.441C107.509 382.954 102.778 378.384 97.9559 373.478C96.4879 371.988 94.9993 370.521 93.5077 369.055C92.5559 368.1 91.6053 367.145 90.6561 366.188C89.8086 365.335 88.961 364.483 88.0878 363.605C84.5755 359.222 83.5861 354.789 83.746 349.203C84.4895 342.752 86.8858 337.125 89.8134 331.383C92.2532 326.483 94.4752 321.478 96.7499 316.5C100.153 309.067 103.607 301.692 107.375 294.437C109.91 289.512 111.945 284.578 113.687 279.312C116.435 271.021 119.928 263.086 123.5 255.125C123.775 254.507 124.051 253.889 124.334 253.252C127.513 246.134 130.855 239.197 134.727 232.428C136.496 229.053 137.646 225.544 138.871 221.945C140.423 217.897 142.43 214.112 144.433 210.276C146.384 206.463 147.799 202.73 149 198.625C151.591 190.381 156.622 185.414 163.91 181.008C175.095 175.614 187.819 177.921 199.75 179.25ZM223 247C222.257 247.722 221.515 248.444 220.75 249.187C218.179 253.319 217.826 257.182 218 262C219.872 268.788 224.481 274.622 230.312 278.562C237.12 279.671 243.554 278.723 249.238 274.699C254.214 269.9 256.277 264.067 256.5 257.25C256.207 251.909 255.232 248.19 251.312 244.344C246.241 239.864 243.332 238.697 236.535 238.785C230.475 239.299 226.932 242.654 223 247ZM197 297C195.232 300.536 196.104 304.254 197 308C199.676 312.396 202.776 313.421 207.562 314.625C215.878 316.296 224.284 317.523 232.685 318.68C234.22 318.892 235.754 319.115 237.285 319.349C241.635 319.999 241.635 319.999 245.812 318.812C248.977 316.19 250.716 314.491 251.5 310.375C250.448 303.275 247.322 297.663 241.75 293.125C226.332 282.398 210.096 283.231 197 297Z" fill="#003374"/>
<path d="M763.625 445.625C768.214 445.729 772.558 446.665 777 447.75C777.652 447.907 778.303 448.064 778.975 448.225C787.617 450.468 794.882 454.25 802.062 459.5C802.784 460.019 803.506 460.538 804.249 461.073C806.508 462.704 808.756 464.349 811 466C812.1 466.808 812.1 466.808 813.223 467.632C815.362 469.207 817.495 470.788 819.625 472.375C820.263 472.85 820.901 473.325 821.559 473.814C824.675 476.16 827.629 478.563 830.508 481.195C833.834 484.079 836.985 485.302 841.25 486.5C848.044 488.539 853.865 491.422 860 495C864.012 497.12 868.074 499.039 872.25 500.812C891.501 509.361 902.841 521.033 910.426 540.44C916.157 556.084 911.711 570.168 905 585C902.668 589.058 899.586 592.022 896 595C894.774 596.152 894.774 596.152 893.523 597.328C888.921 601.631 884.099 605.582 879.074 609.379C877.155 610.878 875.404 612.465 873.625 614.125C869.311 617.874 864.207 619.774 859 622C847.525 627.041 839.501 633.472 832.012 643.492C811.566 668.98 782.083 682.612 750.051 686.809C741.971 687.561 734.226 686.684 726.25 685.375C724.628 685.11 724.628 685.11 722.974 684.839C707.798 682.236 692.32 679.032 679 671C677.575 670.147 677.575 670.147 676.121 669.277C673.371 667.575 670.678 665.814 668 664C666.849 663.225 666.849 663.225 665.676 662.434C661.365 659.382 658.798 656.546 656 652C653.967 649.428 651.892 646.895 649.805 644.367C647.021 640.717 645.613 638.381 646.187 633.75C646.263 633.044 646.339 632.337 646.418 631.609C647 629 647 629 648.515 625.309C650.321 620.652 650.48 616.264 650.562 611.312C650.597 609.663 650.64 608.013 650.691 606.363C650.704 605.644 650.716 604.925 650.729 604.185C651 602 651 602 651.998 599.738C653.327 596.107 653.324 592.649 653.336 588.832C653.342 588.038 653.349 587.245 653.356 586.427C653.366 584.743 653.371 583.06 653.37 581.376C653.375 578.865 653.411 576.356 653.449 573.846C653.528 562.374 651.841 552.086 649 541C646.719 530.333 644.104 516.737 650 507C653.316 502.287 657.282 500.712 662.866 499.616C664.928 499.262 666.993 498.945 669.062 498.641C675.692 497.562 681.413 495.546 687.375 492.5C688.057 492.154 688.739 491.808 689.441 491.451C704.172 483.87 716.928 476.559 727.183 463.293C729.273 460.655 731.589 458.344 734 456C736.168 453.398 738.12 450.819 740 448C741.848 447.691 741.848 447.691 744.062 447.777C744.859 447.796 745.656 447.815 746.476 447.834C747.726 447.885 747.726 447.885 749 447.938C750.645 447.997 752.291 448.049 753.937 448.09C754.668 448.119 755.399 448.149 756.152 448.179C759.389 447.865 759.88 446.012 763.625 445.625ZM853.25 513C851.252 516.197 852.271 519.472 853 523C853.653 524.978 854.408 526.896 855.172 528.834C858.887 538.553 859.741 548.142 860.062 558.438C860.089 559.119 860.115 559.8 860.142 560.502C860.459 569.553 859.544 577.333 857 586C856.568 588.118 856.162 590.242 855.812 592.375C855.654 593.311 855.495 594.247 855.332 595.211C854.98 598.166 854.943 601.027 855 604C857.241 604.86 857.241 604.86 860 605C862.67 603.467 862.67 603.467 865.187 601.125C866.146 600.295 867.105 599.465 868.094 598.609C869.053 597.748 870.012 596.887 871 596C871.876 595.221 872.753 594.443 873.656 593.641C875.327 592.145 876.99 590.64 878.644 589.125C880.841 587.143 883.097 585.261 885.375 583.375C893.516 576.15 896.308 565.214 897.324 554.617C896.383 544.122 890.569 531.757 882.621 524.855C868.616 514.373 868.616 514.373 853.25 513Z" fill="#FDB3C6"/>
<path d="M458.77 387.273C463.062 390.596 466.528 394.775 470.133 398.813C475.916 405.284 481.987 409.785 489.59 413.944C493.561 416.122 497.201 418.525 500.875 421.188C507.196 425.485 513.671 427.413 520.952 429.428C524.303 430.364 527.622 431.384 530.938 432.438C532.653 432.962 532.653 432.962 534.402 433.496C543.273 437.204 548.526 442.254 553.875 450.125C561.036 460.218 568.133 470.17 578.883 476.711C581.048 478.029 583.043 479.468 585.062 481C585.719 481.494 586.375 481.987 587.051 482.496C588.336 483.488 589.605 484.5 590.855 485.535C594.655 488.598 598.177 490.574 602.75 492.313C617.984 498.371 626.828 509.333 633.312 523.938C637.139 532.992 638.711 542.04 639.625 551.784C639.954 554.136 639.954 554.136 641.019 556.784C642.151 560.495 642.288 563.904 642.266 567.742C642.268 568.469 642.269 569.197 642.271 569.946C642.273 571.477 642.269 573.008 642.261 574.54C642.25 576.861 642.261 579.182 642.273 581.504C642.272 583 642.27 584.496 642.266 585.992C642.27 586.676 642.274 587.359 642.278 588.064C642.23 593.038 641.269 597.232 640 602C639.898 603.961 639.797 605.922 639.774 607.885C639.689 615.048 638.644 621.366 636.25 628.125C635.89 629.154 635.89 629.154 635.522 630.203C633.04 636.738 629.62 643.021 623 646C613.256 648.558 599.006 648.746 590 644C584.423 640.077 575.975 632.946 574.606 626.001C573.691 615.095 573.418 604.164 573.104 593.227C573.02 590.616 572.904 588.011 572.762 585.402C572.325 573.734 574.858 561.642 582.57 552.531C583.042 552.026 583.514 551.521 584 551C586.411 548.469 586.411 548.469 588 546C587.869 543.249 587.869 543.249 587 541C583.407 540.676 581.508 540.684 578.402 542.617C568.131 552.026 563.705 562.76 562.312 576.5C560.366 591.481 551.968 607.895 540.93 618.113C538.913 619.985 538.913 619.985 537.23 622.391C534.354 625.756 531.101 627.989 527.438 630.438C526.729 630.915 526.02 631.393 525.29 631.886C509.882 642.161 509.882 642.161 505.262 641.766C503 641 503 641 502 639C501.904 637.544 501.87 636.084 501.875 634.625C501.871 633.469 501.871 633.469 501.867 632.289C502 630 502 630 502.488 628.219C507.846 604.99 499.135 578.437 489.324 557.816C488.173 555.368 487.103 552.908 486.066 550.41C481.443 539.675 474.12 532.098 465.906 523.918C463.231 521.226 460.668 518.441 458.125 515.625C457.364 514.792 456.604 513.96 455.82 513.102C452.022 508.717 452.022 508.717 451.938 506C453.341 503.358 455.132 502.685 457.859 501.636C460.132 500.961 462.355 500.577 464.695 500.203C470.049 499.158 474.261 497.119 478.938 494.375C479.716 493.929 480.495 493.483 481.297 493.024C487.509 489.411 493.391 485.502 499 481C499.879 480.319 500.758 479.639 501.664 478.938C502.497 478.257 503.33 477.576 504.188 476.875C504.924 476.274 505.66 475.674 506.418 475.055C508.539 472.299 508.293 470.387 508 467C504.752 466.581 504.752 466.581 501 467C500.122 467.82 499.244 468.64 498.34 469.484C494.446 472.915 490.689 472.727 485.688 472.563C484.839 472.546 483.99 472.529 483.116 472.512C476.973 472.284 472.199 471.419 467 468C466.282 467.599 465.564 467.198 464.824 466.785C455.092 460.986 448.507 452.16 442.77 442.594C440.948 439.924 439.024 438.029 436.625 435.875C429.013 428.694 421.626 415.577 420.625 405.063C420.814 399.752 423.106 396.798 426.918 393.18C435.551 385.876 448.112 381.36 458.77 387.273ZM509 504C507.824 505.238 507.824 505.238 506.625 506.5C504.221 510.199 502.711 513.513 503.234 518.016C505.039 524.405 509.462 526.881 515 530C515.803 530.55 516.606 531.101 517.434 531.668C522.865 534.487 529.276 532.856 534.898 531.09C538.946 529.339 542.224 527.684 544.125 523.563C545.688 517.528 546.033 511.137 545 505C542.534 500.97 539.135 499.51 534.938 497.625C524.176 495.917 516.339 495.159 509 504Z" fill="#C1DDFD"/>
<path d="M330.52 492.422C335.257 493.625 340.01 494.606 344.82 495.465C345.497 495.586 346.174 495.707 346.871 495.832C349.657 496.329 352.444 496.821 355.233 497.3C362.788 498.604 369.775 500.092 376.84 503.19C380.265 504.474 383.218 504.434 386.875 504.438C404.817 505.011 416.907 516.622 429.211 528.422C431.615 530.721 434.059 532.934 436.602 535.078C443.609 541.053 447.778 546.383 451.52 554.816C452.837 557.65 454.169 559.779 456.125 562.188C462.872 570.747 465.014 580.508 467.106 590.961C467.603 593.398 468.159 595.392 469.102 597.715C470.886 602.254 470.15 607.199 470 612C469.993 613.431 469.987 614.862 469.981 616.293C469.828 625.528 468.559 632.672 464.473 640.984C462.935 643.957 462.935 643.957 461.984 647.102C459.795 653.55 455.676 659.216 450 663C449.299 663.536 448.598 664.073 447.875 664.625C445.091 665.957 443.143 666.362 440.125 666.813C423.877 669.499 409.655 678.427 397.438 689.117C390.585 694.41 382.255 693.749 374 693C357.018 690.452 346.654 682.677 336 670C335.187 669.046 334.373 668.092 333.535 667.109C328.628 661.182 325.434 656.468 325.617 648.59C326.391 643.357 328.713 638.725 331 634C331.373 633.203 331.745 632.407 332.129 631.586C339.981 616.101 356.241 603.559 369.617 592.918C371.857 591.115 373.993 589.24 376.125 587.313C379.578 584.21 383.286 581.853 387.313 579.555C389.294 578.077 389.294 578.077 389.25 575.32C389.168 574.555 389.085 573.789 389 573C383.16 572.536 379.626 573.915 374.75 576.875C368.475 580.396 363.286 582.596 356 583C355.238 583.046 354.477 583.093 353.692 583.14C341.649 583.777 331.21 582.762 319.684 579.297C314.803 577.859 309.908 577.127 304.875 576.438C293.952 574.856 286.937 571.85 279 564C278.072 563.134 277.144 562.268 276.188 561.375C273.146 557.598 272.579 552.871 271.676 548.219C271.069 544.992 271.069 544.992 269.945 541.953C265.662 528.571 271.341 512.621 277.5 500.625C281.052 494.141 285.354 490.641 292.375 488.539C304.909 485.965 318.35 489.26 330.52 492.422Z" fill="#C1DDFE"/>
<path d="M218 214C218.99 214.495 218.99 214.495 220 215C221.371 215.179 222.747 215.32 224.125 215.437C227.869 215.814 231.321 216.545 234.945 217.527C237.976 218.225 241.022 218.49 244.117 218.754C246 219 246 219 248 220C249.766 220.303 251.538 220.566 253.312 220.812C259.333 221.697 265.281 222.819 271.25 224C277.824 225.297 284.333 226.336 291 227C309.622 228.965 309.622 228.965 315.312 234.687C317.77 239.511 317.894 244.06 316.311 249.266C315.331 251.642 314.255 253.942 313.125 256.25C312.725 257.104 312.325 257.958 311.913 258.838C309.759 263.418 307.532 267.962 305.316 272.512C304.439 274.32 303.563 276.128 302.687 277.937C302.258 278.824 301.828 279.71 301.386 280.623C298.695 286.268 296.697 291.819 295.039 297.855C293.553 302.354 291.402 306.424 289.209 310.614C286.011 316.783 283.371 323.134 280.878 329.618C278.567 335.389 275.62 338.765 270.875 342.812C264.996 345.241 258.856 344.739 252.961 342.605C247.065 340.538 241.045 339.782 234.875 338.937C233.685 338.768 232.494 338.598 231.268 338.423C223.696 337.348 216.118 336.325 208.527 335.395C206 335 206 335 204 334C200.787 333.796 197.576 333.682 194.359 333.574C190.579 333.239 187.147 332.21 183.519 331.113C178.364 329.58 173.334 328.438 168.027 327.656C167.03 327.509 167.03 327.509 166.013 327.358C163.294 326.965 160.575 326.586 157.853 326.218C155.825 325.94 153.801 325.643 151.777 325.344C150.594 325.181 149.41 325.018 148.191 324.85C143.402 323.575 140.843 321.308 138.187 317.187C136.334 312.212 136.349 308.007 138.504 303.16C139.177 301.788 139.864 300.422 140.562 299.062C141.3 297.566 142.036 296.069 142.769 294.57C143.143 293.814 143.516 293.058 143.901 292.278C145.622 288.71 147.188 285.078 148.75 281.437C150.436 277.524 152.126 273.641 154.125 269.875C155.86 266.521 157.074 263.066 158.312 259.5C170.014 225.943 179.598 203.74 218 214ZM223 247C222.257 247.722 221.515 248.444 220.75 249.187C218.179 253.319 217.826 257.182 218 262C219.872 268.788 224.481 274.622 230.312 278.562C237.12 279.671 243.554 278.723 249.238 274.699C254.214 269.9 256.277 264.067 256.5 257.25C256.207 251.909 255.232 248.19 251.312 244.344C246.241 239.864 243.332 238.697 236.535 238.785C230.475 239.299 226.932 242.654 223 247ZM197 297C195.232 300.536 196.104 304.254 197 308C199.676 312.396 202.776 313.421 207.562 314.625C215.878 316.296 224.284 317.523 232.685 318.68C234.22 318.892 235.754 319.115 237.285 319.349C241.635 319.999 241.635 319.999 245.812 318.812C248.977 316.19 250.716 314.491 251.5 310.375C250.448 303.275 247.322 297.663 241.75 293.125C226.332 282.398 210.096 283.231 197 297Z" fill="#003174"/>
<path d="M650.477 292.875C669.408 293.144 686.61 298.345 701.559 310.145C703.972 311.979 706.399 313.376 709.063 314.812C724.712 324.014 734.792 342.989 739.41 360.02C740.492 364.21 741.509 368.413 742.464 372.634C742.823 374.217 743.193 375.798 743.575 377.376C745.569 385.785 746.134 394.308 743.551 402.672C742.936 405.271 742.725 407.839 742.501 410.496C741.081 426.084 733.148 440.215 723 452C722.17 452.663 721.34 453.325 720.484 454.008C717.888 456.09 716.205 458.193 714.25 460.875C710.329 465.858 706.427 468.822 701 472C699.849 472.726 698.699 473.456 697.551 474.188C690.376 478.703 683.439 482.314 675.414 485.125C673.081 485.778 673.081 485.778 672 487C670.645 487.144 669.284 487.227 667.922 487.281C666.675 487.337 666.675 487.337 665.402 487.395C664.527 487.429 663.652 487.464 662.75 487.5C657.715 487.704 652.943 487.981 648 489C645.752 489.092 643.5 489.13 641.25 489.125C640.1 489.128 638.95 489.13 637.766 489.133C629.492 488.841 622.296 487.447 614.438 484.812C613.544 484.533 612.65 484.254 611.729 483.967C605.541 481.916 601.008 479.124 596 475C594.299 473.781 592.592 472.571 590.875 471.375C589.607 470.487 589.607 470.487 588.313 469.582C586.531 468.363 584.71 467.2 582.875 466.062C569.437 456.422 561.294 441.912 555 427C554.639 426.241 554.278 425.481 553.906 424.699C551.406 419.108 551.288 413.011 552 407C552.99 406.01 552.99 406.01 554 405C557.604 405.294 559.063 406.863 561.375 409.5C566.325 414.643 572.115 418.191 578.161 421.875C579.99 422.994 581.805 424.132 583.617 425.277C591.39 430.156 597.435 433.08 606.574 434.242C609.594 434.91 611.864 435.791 614.66 437.043C620.404 439.416 625.596 439.575 631.75 439.438C632.803 439.423 633.857 439.408 634.942 439.393C647.333 439.094 657.765 437.453 668 430C669.282 429.083 669.282 429.083 670.59 428.148C684.592 417.579 691.483 403.119 694 386C694.399 381.142 694.531 376.311 694.563 371.438C694.584 369.673 694.584 369.673 694.607 367.872C694.519 360.388 693.306 354.695 690 348C689.636 347.216 689.271 346.431 688.896 345.623C680.425 327.739 669.122 316.339 653.141 304.965C647.227 300.68 647.227 300.68 645.875 296.625C646.065 292.631 646.349 293.023 650.477 292.875Z" fill="#7FAFFD"/>
<path d="M184.875 190.188C185.808 190.239 186.741 190.29 187.703 190.343C197.695 190.978 207.26 192.425 216.625 196.125C221.507 198.021 225.837 198.404 231.039 198.656C236.321 199.115 241.477 200.042 246.688 201C248.16 201.268 248.16 201.268 249.661 201.541C256.724 202.862 256.724 202.862 259 204C260.7 204.094 262.4 204.184 264.102 204.24C270.535 204.463 276.285 205.167 282.5 207C289.272 208.996 295.436 209.543 302.441 209.727C306.001 210 308.643 210.84 312 212C314.923 212.577 317.866 213 320.813 213.438C326.435 214.319 331.768 215.287 337.109 217.316C339.177 218.064 341.228 218.533 343.375 219C347 220 347 220 349.063 221.313C350.458 223.824 349.754 225.271 349 228C348.04 229.743 347.01 231.449 345.938 233.125C340.293 242.532 336.474 252.775 332.43 262.945C331.913 264.235 331.395 265.524 330.875 266.813C330.611 267.467 330.347 268.122 330.075 268.796C328.043 273.725 325.827 278.56 323.555 283.383C323.245 284.042 322.935 284.7 322.615 285.379C321.051 288.697 319.476 292.011 317.886 295.318C314.988 301.395 312.47 307.31 310.694 313.812C309.56 317.387 307.696 320.439 305.75 323.625C302.582 329.019 299.803 334.422 297.375 340.188C288.641 360.764 288.641 360.764 282 364C275.58 366.14 269.029 364.67 262.524 363.539C261.635 363.388 260.747 363.238 259.832 363.083C257.964 362.764 256.097 362.443 254.23 362.119C251.378 361.626 248.525 361.144 245.672 360.664C243.852 360.352 242.031 360.04 240.211 359.727C239.362 359.584 238.513 359.441 237.638 359.294C233.498 358.567 229.891 357.629 226 356C224.142 355.624 222.271 355.306 220.395 355.035C219.328 354.875 218.261 354.714 217.162 354.549C214.949 354.227 212.735 353.907 210.522 353.588C205.446 352.823 200.593 351.971 195.699 350.402C191.327 349.003 187.59 348.611 183 348.5C177.559 348.287 172.888 347.55 167.75 345.754C163.343 344.546 158.846 344.231 154.309 343.772C150.208 343.333 146.45 342.686 142.5 341.438C137.818 340.005 133.42 339.693 128.563 339.5C112.6 338.844 112.6 338.844 106.117 334.836C104.241 331.752 105.181 329.407 106 326C107.073 323.555 108.175 321.277 109.438 318.938C112.886 312.286 116.131 305.562 119.25 298.75C119.662 297.864 120.074 296.979 120.498 296.066C122.574 291.512 124.381 286.987 125.906 282.219C128.185 275.169 131.183 268.485 134.25 261.75C134.831 260.463 135.412 259.176 135.992 257.889C139.344 250.487 142.816 243.158 146.53 235.93C148.634 231.82 150.38 227.669 152.004 223.352C153.161 220.621 154.583 218.131 156.063 215.563C158.216 211.785 159.474 208.498 160.375 204.25C161.799 198.326 164.907 195.2 170 192C174.811 189.313 179.547 189.874 184.875 190.188ZM177.608 217.845C176.301 219.837 175.105 221.86 173.938 223.938C173.511 224.68 173.084 225.423 172.644 226.189C169.341 232.075 166.737 238.06 164.367 244.371C162.98 248.053 161.452 251.645 159.875 255.25C158.119 259.297 156.496 263.329 155.063 267.5C153.124 272.988 150.527 278.05 147.875 283.223C145.171 288.575 142.845 294.093 140.481 299.602C139.649 301.511 138.788 303.41 137.828 305.258C136.372 308.322 136.611 310.662 137 314C139.016 318.287 141.037 321.358 145 324C147.18 324.458 149.378 324.828 151.582 325.148C152.921 325.352 154.261 325.555 155.6 325.758C157.687 326.065 159.776 326.37 161.864 326.672C170.474 327.93 178.607 329.637 186.962 332.157C190.66 333.183 193.921 333.56 197.75 333.688C203.854 333.927 203.854 333.927 206 335C208.022 335.338 210.051 335.631 212.082 335.902C213.325 336.071 214.569 336.239 215.85 336.412C217.157 336.586 218.465 336.759 219.813 336.938C227.266 337.936 234.72 338.935 242.16 340.027C243.684 340.25 243.684 340.25 245.239 340.476C247.842 340.97 250.156 341.677 252.625 342.625C258.424 344.689 264.467 345.276 270.336 343.156C279.7 338.004 282.799 324.715 286.846 315.375C288.993 310.452 291.175 305.598 293.66 300.836C295.283 297.66 296.476 294.65 297.414 291.211C299.243 284.64 302.345 278.712 305.375 272.625C314.982 256.14 314.982 256.14 317 238C314.493 233.079 311.776 231.622 306.625 229.813C299.459 227.84 292.184 227.013 284.814 226.148C277.737 225.299 270.899 223.998 263.97 222.346C259.226 221.227 254.613 220.471 249.75 220.176C248 220 248 220 246 219C243.5 218.633 241.008 218.3 238.5 218C231.27 217.135 231.27 217.135 229 216C227.649 215.846 226.294 215.725 224.938 215.625C221.627 215.292 218.755 214.685 215.625 213.563C208.144 210.927 200.664 209.861 192.75 209.5C191.631 209.448 190.512 209.397 189.359 209.344C183.986 210.394 180.853 213.544 177.608 217.845Z" fill="#6FFBB7"/>
<path d="M763.625 445.625C768.214 445.729 772.558 446.665 777 447.75C777.652 447.907 778.303 448.064 778.975 448.225C787.617 450.468 794.882 454.25 802.062 459.5C802.784 460.019 803.506 460.538 804.249 461.073C806.508 462.704 808.756 464.349 811 466C812.1 466.808 812.1 466.808 813.223 467.632C815.362 469.207 817.495 470.788 819.625 472.375C820.263 472.85 820.901 473.325 821.559 473.814C824.675 476.16 827.629 478.563 830.508 481.195C833.834 484.079 836.985 485.302 841.25 486.5C848.044 488.539 853.865 491.422 860 495C864.012 497.12 868.074 499.039 872.25 500.812C891.501 509.361 902.841 521.033 910.426 540.44C916.157 556.084 911.711 570.168 905 585C902.668 589.058 899.586 592.022 896 595C894.774 596.152 894.774 596.152 893.523 597.328C888.921 601.631 884.099 605.582 879.074 609.379C877.155 610.878 875.404 612.465 873.625 614.125C869.311 617.874 864.207 619.774 859 622C847.525 627.041 839.501 633.472 832.012 643.492C811.566 668.98 782.083 682.612 750.051 686.809C741.971 687.561 734.226 686.684 726.25 685.375C724.628 685.11 724.628 685.11 722.974 684.839C707.798 682.236 692.32 679.032 679 671C678.05 670.432 677.1 669.863 676.121 669.277C663.406 661.406 663.406 661.406 659 657C658.702 654.166 658.644 652.562 660.187 650.125C662 649 662 649 664.297 649.266C667.191 650.052 669.443 651.149 672.055 652.617C672.999 653.142 673.944 653.666 674.918 654.207C675.894 654.757 676.87 655.308 677.875 655.875C703.457 670.216 735.684 677.894 764.543 670.035C780.812 665.369 795.087 659.045 808 648C808.776 647.385 809.552 646.77 810.351 646.137C812.492 644.464 812.492 644.464 815 642C815 641.01 815 640.02 815 639C812.434 639.034 809.876 639.102 807.312 639.188C806.611 639.193 805.909 639.199 805.185 639.205C800.261 639.402 796.518 640.519 791.988 642.473C784.012 645.721 776.369 645.968 767.875 646.25C765.639 646.344 763.403 646.443 761.168 646.546C759.167 646.636 757.165 646.709 755.163 646.782C751.976 646.869 751.976 646.869 749 648C747.337 648.142 745.668 648.22 744 648.25C742.701 648.289 742.701 648.289 741.375 648.328C739 648 739 648 737.211 646.641C735.487 644.305 735.575 642.832 736 640C739.89 634.959 747.016 633.901 753 633C758.522 632.589 764.048 632.452 769.584 632.416C778.054 632.3 785.068 630.75 792.812 627.375C796.299 625.983 799.26 625.912 803 625.875C815.512 625.149 828.454 615.764 837 607C838.765 604.429 839.958 601.928 841 599C841.339 598.241 841.678 597.481 842.027 596.699C843.186 593.485 843.588 590.452 844 587.062C844.422 583.597 844.813 580.505 846.026 577.226C847.667 571.792 847.172 566.262 846.998 560.645C846.938 558.534 846.914 556.424 846.893 554.312C846.707 545.785 845.402 538.941 842.189 530.971C841.128 528.321 840.354 525.77 839.687 523C834.639 505.97 821.14 489.249 807 479C805.653 477.981 804.308 476.958 802.965 475.934C790.541 466.489 779.201 458.496 763.242 456.555C760.618 455.906 759.619 455.14 758 453C757.687 450.438 757.687 450.438 758 448C760 446 760 446 763.625 445.625ZM853.25 513C851.252 516.197 852.271 519.472 853 523C853.653 524.978 854.408 526.896 855.172 528.834C858.887 538.553 859.741 548.142 860.062 558.438C860.089 559.119 860.115 559.8 860.142 560.502C860.459 569.553 859.544 577.333 857 586C856.568 588.118 856.162 590.242 855.812 592.375C855.654 593.311 855.495 594.247 855.332 595.211C854.98 598.166 854.943 601.027 855 604C857.241 604.86 857.241 604.86 860 605C862.67 603.467 862.67 603.467 865.187 601.125C866.146 600.295 867.106 599.465 868.094 598.609C869.053 597.748 870.012 596.887 871 596C871.876 595.221 872.753 594.443 873.656 593.641C875.327 592.145 876.99 590.64 878.644 589.125C880.841 587.143 883.097 585.261 885.375 583.375C893.516 576.15 896.308 565.214 897.324 554.617C896.383 544.122 890.569 531.757 882.621 524.855C868.616 514.373 868.616 514.373 853.25 513Z" fill="#023174"/>
<path d="M844 727C844.683 727.473 845.366 727.946 846.07 728.434C851.213 732.363 853.521 737.12 856 743C856.257 743.607 856.514 744.214 856.779 744.839C863.751 761.418 864.528 775.41 857.645 792.332C849.462 808.017 835.42 816.527 819 822C806.216 823.507 790.661 819.24 780 812C768.793 803.067 759.823 793.243 757.465 778.699C755.875 764.082 759.398 752.139 766.313 739.313C766.762 738.475 767.212 737.638 767.675 736.775C773.388 726.763 781.223 721.856 792 718C811.398 713.307 827.663 715.421 844 727Z" fill="#013175"/>
<path d="M490.996 89.2969C497.008 91.4063 501.175 97.1879 505 102C506.088 102.956 507.194 103.892 508.313 104.812C512.954 108.681 516.82 113.201 520.527 117.961C523.86 122.151 526.564 124.822 532 126C539.288 123.992 546.07 120.004 552.688 116.437C570.274 107.007 570.274 107.007 577 109C578.718 110.614 580.377 112.291 582 114C583.001 114.986 584.007 115.967 585.016 116.945C590.987 122.798 596.569 128.72 601.781 135.273C605.949 140.395 610.495 145.177 615 150C616.24 151.333 617.479 152.667 618.719 154C624.737 160.459 630.793 166.849 637.078 173.051C639.648 175.657 642.06 178.376 644.43 181.164C645.427 182.33 646.451 183.474 647.508 184.586C650.884 188.232 652 191.029 652 196C649.79 201.584 645.413 203.258 640.313 205.75C638.567 206.633 636.822 207.519 635.078 208.406C634.211 208.845 633.344 209.283 632.451 209.734C629.092 211.469 625.831 213.352 622.563 215.25C614.632 219.811 606.42 223.802 598.219 227.847C589.363 232.223 580.746 236.853 572.32 242.012C562.59 247.839 562.59 247.839 556 247C551.975 244.585 549.174 241.01 546.152 237.473C543.497 234.422 540.753 231.462 538 228.5C533.583 223.736 529.255 218.91 525 214C523.628 212.435 522.253 210.872 520.875 209.312C520.254 208.607 519.632 207.902 518.992 207.176C517.563 205.614 516.089 204.092 514.59 202.598C511.857 199.857 509.271 197.004 506.688 194.125C503.568 190.674 500.466 187.41 496.875 184.438C491.87 180.234 488.001 175.137 484 170C483.457 169.358 482.915 168.716 482.356 168.055C476.874 161.262 477.846 152.8 478.34 144.531C478.386 143.652 478.432 142.773 478.479 141.867C478.625 139.078 478.78 136.289 478.938 133.5C479.14 129.844 479.336 126.188 479.527 122.531C479.576 121.642 479.625 120.753 479.676 119.836C479.895 115.562 480.024 111.323 479.926 107.043C479.91 106.269 479.894 105.495 479.877 104.697C479.838 103.261 479.781 101.825 479.703 100.39C479.6 96.8316 479.923 95.1183 481.887 92.0957C484.941 89.0673 486.712 88.6171 490.996 89.2969ZM561.438 126.465C560.401 127.013 559.364 127.562 558.296 128.127C557.208 128.725 556.121 129.322 555 129.937C553.873 130.541 552.746 131.144 551.585 131.765C544.887 135.367 538.244 139.056 531.68 142.895C528.633 144.661 525.544 146.34 522.445 148.012C521.456 148.546 520.466 149.08 519.446 149.631C517.482 150.688 515.516 151.741 513.548 152.789C505.201 156.803 505.201 156.803 499.938 163.875C500.042 169.075 503.099 172.13 506.734 175.641C507.73 176.502 508.725 177.363 509.75 178.25C514.488 182.435 518.427 186.82 522.27 191.859C523.778 193.725 525.189 195.149 527.063 196.625C530.098 199.079 532.434 201.679 534.957 204.637C537.375 207.434 539.87 210.157 542.375 212.875C546.662 217.531 550.909 222.221 555.125 226.941C556.053 227.96 556.053 227.96 557 229C557.474 229.607 557.949 230.214 558.438 230.84C559.969 232.223 559.969 232.223 562.188 231.961C566.075 230.633 569.453 228.68 573 226.625C579.857 222.735 586.762 218.963 593.75 215.312C595.083 214.615 595.083 214.615 596.443 213.904C601.431 211.306 606.448 208.783 611.5 206.312C622.996 200.739 622.996 200.739 633 193C632.914 188.026 629.917 185.294 626.625 181.938C625.524 180.783 624.424 179.628 623.324 178.473C622.767 177.893 622.209 177.313 621.634 176.715C619.647 174.63 617.713 172.5 615.782 170.363C611.749 165.9 607.607 161.587 603.313 157.375C599.227 153.335 595.621 149.15 592.102 144.617C589.63 141.539 587.034 138.604 584.375 135.687C583.496 134.722 582.617 133.756 581.711 132.762C575.42 126.353 570.417 121.631 561.438 126.465Z" fill="#003073"/>
<path d="M501.461 793.875C517.617 801.431 525.682 815.529 531.59 831.641C536.273 845.416 536.513 858.083 530.805 871.555C529.126 874.76 527.888 876.458 525.063 878.625C524.052 879.409 523.041 880.192 522 881C521.959 883.787 521.959 883.787 523 887C523.588 895.374 523.33 901.004 517.813 907.625C511.003 913.375 505.505 914.67 496.527 914.383C488.091 913.467 481.269 909.868 474.192 905.367C470.578 903.113 468.135 901.723 463.805 901.98C463.011 902.013 462.218 902.046 461.4 902.08C460.567 902.116 459.734 902.151 458.875 902.188C446.832 902.404 440.112 898.809 431.383 890.504C419.245 877.749 413.117 862.918 413.449 845.391C414.075 835.498 419.487 826.295 426 819C430.96 815.472 437.145 813.896 442.875 812.063C445.911 811.03 448.81 809.841 451.75 808.563C456.413 806.563 461.084 805.004 465.938 803.563C474.069 801.133 481.647 797.883 489.133 793.852C493.282 791.959 497.297 792.395 501.461 793.875ZM465.438 818.188C464.732 818.412 464.027 818.636 463.3 818.867C457.985 820.592 452.859 822.633 447.75 824.902C445.043 825.983 442.469 826.582 439.625 827.188C435.311 828.381 433.803 830.132 431.5 833.938C430.633 835.608 429.797 837.295 429 839C428.634 839.677 428.268 840.354 427.891 841.051C425.55 846.175 425.478 852.297 427.09 857.645C431.66 869.472 438.157 882.079 450 888C455.583 889.309 459.288 888.581 464.438 886.375C465.842 885.809 467.249 885.246 468.656 884.688C469.372 884.403 470.087 884.118 470.824 883.824C474.311 882.504 477.867 881.441 481.438 880.375C487.182 878.642 492.593 876.607 498 874C498.274 870.987 498.283 869.435 496.61 866.859C495.996 866.163 495.382 865.467 494.75 864.75C489.283 858.084 486.78 850.635 483.93 842.578C483.045 840.008 483.045 840.008 481.914 837.645C480.332 833.066 480.534 828.302 480.344 823.496C480.037 820.373 479.648 818.611 478 816C473.501 815.697 469.667 816.814 465.438 818.188ZM495.5 888.812C494.62 889.169 493.739 889.525 492.832 889.893C491.99 890.244 491.149 890.595 490.281 890.957C489.509 891.276 488.736 891.596 487.94 891.925C485.68 892.984 485.68 892.984 484 896C493.61 900.602 493.61 900.602 504 901C507.746 899.27 507.746 899.27 510 896C510.374 891.067 510.374 891.067 508.625 886.562C505.004 883.081 499.489 887.145 495.5 888.812Z" fill="#003073"/>
<path d="M126 351C127.833 350.918 129.666 350.86 131.5 350.812C132.521 350.778 133.542 350.743 134.594 350.707C137.543 350.961 139.164 351.361 141.816 352.449C146.315 354.272 150.627 354.658 155.438 355C161.324 355.42 166.336 356.341 171.894 358.34C174.953 359.298 177.871 359.376 181.062 359.438C187.34 359.738 192.889 360.825 198.932 362.486C203.752 363.778 208.478 364.536 213.438 365.062C218.385 365.593 222.762 366.446 227.414 368.211C235.117 370.561 243.399 371.324 251.352 372.492C254.573 372.967 257.786 373.48 261 374C261.734 374.109 262.469 374.217 263.226 374.329C281.188 377.044 295.019 383.043 308 396C309.365 397.22 310.739 398.429 312.125 399.625C312.757 400.175 313.388 400.726 314.039 401.293C314.686 401.856 315.333 402.42 316 403C317.5 404.312 319 405.625 320.5 406.938C321.505 407.817 321.505 407.817 322.531 408.715C323.016 409.139 323.501 409.563 324 410C323.67 411.65 323.34 413.3 323 415C316.33 415.196 310.337 414.527 303.812 413.188C302.894 413.007 301.976 412.826 301.03 412.639C295.814 411.604 290.625 410.479 285.438 409.312C281.3 408.399 277.353 407.812 273.125 407.562C264.324 406.978 255.804 404.437 247.383 401.918C240.082 399.785 233.315 398.637 225.75 398.062C217.901 397.466 210.752 396.087 203.202 393.896C194.559 391.45 185.758 390.364 176.853 389.31C175 389 175 389 173 388C172.304 388.035 171.608 388.07 170.891 388.105C161.877 388.385 157.623 383.813 151.41 378.051C148.606 375.463 145.756 373.47 142.438 371.562C135.231 367.26 129.725 361.053 124 355C124.66 353.68 125.32 352.36 126 351Z" fill="#6FFBB7"/>
<path d="M222 529C222.056 530.506 222.056 530.506 222.113 532.043C222.924 550.345 227.653 565.142 238.562 580C241.097 583.65 241.799 586.501 241.445 590.938C239.966 597.786 234.475 601.341 229 605C227.274 606.089 225.545 607.172 223.812 608.25C213.212 614.907 203.644 623.054 194 631C192.191 632.484 190.379 633.963 188.562 635.438C187.78 636.076 186.997 636.714 186.191 637.371C181.667 640.734 178.905 641.388 173.371 640.598C167.308 639.069 161.973 635.018 158.175 630.095C156.014 626.242 156.353 622.276 157 618C158.304 614.74 160.094 611.96 162.062 609.062C162.565 608.282 163.067 607.501 163.584 606.697C165.035 604.449 166.511 602.222 168 600C171.638 594.519 174.938 589.431 177.25 583.25C181.407 572.7 189.132 563.895 196.758 555.652C201.195 550.403 205.069 544.71 209.047 539.109C216.265 529 216.265 529 222 529Z" fill="#C0DDFD"/>
<path d="M310.25 798.937C313.723 801.543 316.565 804.605 319.582 807.719C323.314 811.24 327.4 813.76 332 816C332.7 816.347 333.4 816.694 334.122 817.052C340.894 820.122 346.642 820.437 354 820.125C356.041 820.056 358.083 819.996 360.125 819.945C361.014 819.909 361.904 819.873 362.82 819.836C365 820 365 820 367 822C366.739 827.348 364.991 832.569 362 837C358.946 839.591 355.593 841.261 352 843C350.235 843.882 350.235 843.882 348.434 844.781C336.114 850.784 325.027 854.643 311.188 854.937C309.954 854.968 308.721 854.999 307.45 855.031C289.582 855.296 275.004 851.182 261.312 839.437C256.403 834.658 252.948 830.571 252.375 823.5C252.617 819.168 253.953 816.767 256.957 813.691C260.178 811.025 263.64 808.83 267.219 806.676C270.076 805.016 270.076 805.016 272.863 802.867C276.577 800.657 279.407 800.243 283.688 799.812C305.339 797.521 305.339 797.521 310.25 798.937Z" fill="#7FB0FE"/>
<path d="M311 709C314.626 710.02 316.78 711.639 319.437 714.188C331.704 725.234 348.405 729.032 364.406 730.312C368.627 731.12 370.893 732.008 374 735C374.788 740.74 373.515 745.405 371.75 750.875C369.418 758.606 368.031 766.326 366.875 774.312C363.331 798.717 363.331 798.717 359 805C354.476 808.051 350.336 808.694 345 808C336.991 806.418 330.23 802.121 325.187 795.688C323.338 791.502 321.627 787.276 320 783C319.75 782.4 319.5 781.801 319.242 781.183C317.289 776.349 316.436 771.927 316 766.75C315.492 761.664 314.841 756.824 313.5 751.875C309.903 738.382 308.878 723.933 310 710C310.33 709.67 310.66 709.34 311 709Z" fill="#C0DCFD"/>
<path d="M143 619C143.52 621.25 143.52 621.25 143.813 624C145.249 632.922 149.731 639.817 156.742 645.469C163.574 650.102 170.525 652.472 178.688 653.445C181.391 654.094 182.376 654.762 184 657C184.755 662.66 184.095 665.757 180.777 670.359C174.473 676.179 169.097 676.596 160.813 676.375C159.78 676.356 158.748 676.336 157.684 676.316C154.787 676.243 151.895 676.132 149 676C147.855 675.952 146.711 675.905 145.531 675.855C135.397 674.763 126.022 669.435 117 665C116.207 664.623 115.414 664.247 114.597 663.859C100.49 657.102 86.6334 647.263 79.6428 632.827C78.4498 629.436 78.823 627.345 80 624C85.2363 616.794 94.5348 615.155 102.773 613.414C116.113 611.702 131.413 611.276 143 619Z" fill="#7FAFFD"/>
<path d="M619 743C623.47 745.155 626.029 747.436 628 752C629.42 758.772 628.987 763.637 625.375 769.75C622.228 772.731 619.071 773.699 615 775C609.226 777.021 606.983 778.655 604 784C603.34 786.717 602.822 789.251 602.437 792C601.281 799.937 599.354 805.495 593.012 810.547C584.161 816.94 577.148 818.958 566.253 817.241C559.873 816.075 555.161 815.086 551 810C547.051 803.287 547.22 796.287 548.625 788.813C551.262 779.879 559.276 775.292 567 771C569.949 770.017 572.463 769.83 575.548 769.709C582.162 769.448 588.038 769.1 594 766C596.106 762.841 596.319 761.419 596.75 757.75C597.685 752.144 599.597 748.613 604 745C608.667 742.088 613.676 742.375 619 743Z" fill="#003073"/>
<path d="M569 667C573.184 667.544 575.55 668.883 578.875 671.438C586.074 676.607 592.306 677.241 601.012 677.559C604.228 678.034 605.629 678.837 608 681C606.8 693.033 594.326 705.63 586 714C583.466 716.052 580.887 717.51 578 719C576.072 720.17 574.156 721.359 572.25 722.562C571.348 723.121 570.445 723.679 569.515 724.254C567.036 725.975 565.106 727.85 563 730C557.522 734.118 551.798 734.726 545.07 734.523C540.463 733.738 537.763 731.706 535 728C532.942 724.566 532.748 722.13 533.418 718.125C536.031 708.583 545.178 700.812 551.988 694.016C556.632 689.19 559.358 683.742 562.161 677.722C564.046 673.7 566.044 670.375 569 667Z" fill="#C0DDFD"/>
<path d="M429 235C435.294 236.851 439.701 242.23 444 247C448.104 255.207 446.228 274.132 443.988 282.859C442.84 286.074 441.638 289.01 440 292C439.329 293.315 439.329 293.315 438.644 294.656C436.684 297.45 435.043 298.477 432 300C429.353 300.325 429.353 300.325 426.551 300.258C425.538 300.244 424.526 300.229 423.482 300.215C422.436 300.185 421.39 300.156 420.312 300.125C418.225 300.082 416.138 300.042 414.051 300.008C413.129 299.983 412.208 299.959 411.259 299.934C408.964 299.842 408.964 299.842 407 301C404.793 301.238 404.793 301.238 402.187 301.312C401.335 301.35 400.483 301.387 399.605 301.426C396.044 300.844 394.543 299.539 392 297C390.199 293.977 390.199 293.977 388.687 290.625C388.176 289.524 387.664 288.423 387.137 287.289C385.965 283.898 385.624 281.555 386 278C386.66 277.01 387.32 276.02 388 275C389.32 275.33 390.64 275.66 392 276C392.205 276.855 392.41 277.709 392.621 278.59C392.89 279.695 393.16 280.799 393.437 281.937C393.704 283.04 393.971 284.142 394.246 285.277C394.73 287.894 394.73 287.894 396 289C399 289.167 399 289.167 402 289C403.899 287.101 403.124 284.428 403.133 281.91C403.117 279.914 403.117 279.914 402 278C400.12 263.361 406.891 247.76 415.383 236.102C419.173 233.52 424.638 234.599 429 235Z" fill="#7EAFFD"/>
<path d="M269 492C268.569 496.913 267.837 500.479 265.813 505.021C258.112 523.759 258.727 541.736 265.985 560.555C267.493 564.047 268.824 566.785 271.25 569.75C273 572 273 572 273.625 574.562C273 577 273 577 270.187 579.25C266.531 581.257 263.805 582.165 259.687 582.25C258.949 582.276 258.21 582.302 257.449 582.328C252.601 581.679 249.673 579.753 246.437 576.137C245.608 574.999 244.796 573.849 244 572.687C243.572 572.074 243.144 571.461 242.703 570.83C234.226 558.271 230.616 545.175 232 530C235.568 515.745 243.658 503.042 256 495C260.203 492.785 264.197 491.55 269 492Z" fill="#7FAFFD"/>
<path d="M431.438 508.562C438.32 509.408 445.016 514.293 450 519C451.529 520.992 452.999 523.022 454.469 525.059C456.633 527.802 459.299 529.795 462 532C464.455 534.568 466.725 537.272 469 540C469.579 540.645 470.158 541.289 470.754 541.953C476.143 548.27 479.051 555.351 482.155 562.956C482.965 564.915 483.808 566.855 484.668 568.793C488.942 578.471 492.156 587.139 492.789 597.75C492.866 600.034 492.866 600.034 494 602C495.419 617.419 495.201 632.593 486.148 645.676C483.632 648.69 481.275 650.817 478 653C473.459 652.459 473.459 652.459 472 651C471.398 646.064 472.745 643.253 474.98 639.043C478.837 631.315 478.639 622.445 479 614C479.066 612.827 479.131 611.654 479.199 610.445C479.455 602.661 478.279 596.033 476.055 588.578C475.127 585.43 474.454 582.339 473.812 579.125C471.158 568.345 464.747 558.063 458.359 549.082C456.835 546.748 455.745 544.335 454.562 541.812C450.228 533.649 442.859 527.999 436 522C434.187 520.375 432.375 518.75 430.562 517.125C429.377 516.081 428.19 515.039 427 514C428.092 509.163 428.092 509.163 431.438 508.562Z" fill="#7DAEFC"/>
<path d="M137 447C140.315 450.315 139.261 459.845 139.438 464.313C139.423 474.463 139.423 474.463 142 484C146.238 487.461 150.496 488.938 155.75 490.125C162.751 491.751 162.751 491.751 165 494C165.25 497 165.25 497 165 500C162.183 502.817 160.117 502.335 156.188 502.5C149.767 502.614 149.767 502.614 144 505C140.51 511.778 139.916 519.205 138.938 526.688C138.619 529.088 138.295 531.488 137.965 533.887C137.827 534.941 137.689 535.995 137.547 537.081C137.003 539.983 136.353 542.375 135 545C132.062 546 132.062 546 129 546C127.312 545.012 127.312 545.012 126 543C125.83 540.2 125.819 537.601 125.938 534.812C126.163 524.836 125.697 514.672 123 505C116.311 503.173 109.9 501.679 102.961 501.309C101 501 101 501 99 499C98.5625 496.062 98.5625 496.062 99 493C103.506 489.433 108.699 489.019 114.205 488.271C118.734 487.553 121.253 486.735 124 483C125.697 479.394 126.264 476.48 126.344 472.508C126.373 471.473 126.403 470.438 126.434 469.371C126.456 468.3 126.477 467.229 126.5 466.125C126.777 452.701 126.777 452.701 129 447C131.882 445.559 133.918 446.344 137 447Z" fill="#FFC562"/>
<path d="M511.648 712.906C516.477 715.409 519.561 718.024 522 723C522.448 724.951 522.893 726.903 523.297 728.863C524.157 731.477 525.496 733.288 527.125 735.5C529.119 738.372 530.522 740.612 530.875 744.125C529.634 749.618 526.665 752.042 522 755C511.401 760.09 499.466 762.341 487.75 762.5C486.715 762.527 486.715 762.527 485.659 762.555C479.457 762.48 475.938 759.887 471.625 755.688C469.476 752.133 469.425 750.097 470 746C472.809 739.743 478.032 736.877 484 734C487.292 732.814 490.619 731.895 494 731C497.142 729.887 498.652 729.348 501 727C501.354 724.24 501.439 722.659 499.875 720.313C497.405 718.583 494.881 717.832 492 717C492.812 715.063 492.812 715.063 494 713C499.645 711.118 505.994 710.971 511.648 712.906Z" fill="#7FAFFD"/>
<path d="M316 665C319.8 665.093 320.948 665.947 323.648 668.695C324.569 669.829 325.477 670.973 326.375 672.125C327.341 673.317 328.31 674.507 329.281 675.695C329.747 676.268 330.212 676.841 330.691 677.431C332.819 679.983 335.14 682.3 337.543 684.59C339 686 339 686 341.188 688.562C351.142 697.19 363.81 700.137 376.547 701.277C380.423 702.088 382.23 703.209 385 706C385.836 709.344 385.514 711.139 383.75 714.094C381.369 717.38 379.405 719.73 376 722C359.64 723.741 341.683 718.913 328 710C325.25 707.625 325.25 707.625 323 705C322.155 704.14 322.155 704.14 321.293 703.262C315.028 696.68 311.842 690.096 311.562 680.938C311.731 675.919 312.218 668.782 316 665Z" fill="#7EAFFC"/>
<path d="M720 154.75C723 155 723 155 725 157C726.08 161.516 725.927 165.325 725.438 169.938C724.906 175.775 724.561 180.666 728.203 185.645C733.525 190.953 741.004 192.807 748 195C748.625 197.812 748.625 197.812 749 201C747 204 747 204 744 205C742.024 205.2 740.044 205.363 738.062 205.5C734.589 205.741 731.35 206.031 728 207C725.087 215.531 724.735 223.206 725.111 232.144C725.302 238.424 725.302 238.424 723.656 241.566C722 243 722 243 719.5 243.438C716.532 242.918 715.857 242.315 714 240C711.692 232.777 711.454 224.634 710.697 217.107C710.37 213.919 710.017 211.051 709 208C706.685 206.815 706.685 206.815 703.875 205.938C702.885 205.6 701.895 205.262 700.875 204.914C698.549 204.175 696.225 203.469 693.875 202.812C691 202 691 202 690 201C689.812 197.562 689.812 197.562 690 194C692.554 191.446 693.708 191.722 697.25 191.562C701.812 191.222 705.115 190.59 709 188C711.513 184.231 711.608 180.826 712 176.438C714.132 155.239 714.132 155.239 720 154.75Z" fill="#FFC562"/>
<path d="M828 736C834.496 736.22 837.453 737.345 842 742C844.92 746.679 844.595 751.666 844 757C842.148 761.146 839.542 762.4 835.5 764.062C830.07 765.89 824.556 766.895 818.938 767.938C807.091 770.174 798.324 773.955 790 783C788.901 784.643 787.836 786.309 786.813 788C784.374 791.893 784.374 791.893 780.938 792.875C777.084 791.727 775.499 790.124 773 787C769.744 780.397 770.089 772.58 771.875 765.562C775.733 760.91 780.907 757.548 786.906 756.486C789.949 756.332 792.953 756.313 796 756.375C804.855 756.487 813.458 756.174 820.313 749.875C822.371 746.368 824.196 742.778 825.949 739.109C827 737 827 737 828 736Z" fill="#C293FC"/>
<path d="M523.687 486.75C524.561 486.729 525.434 486.709 526.334 486.688C534.72 486.637 541.304 488.729 548 494C548.635 494.44 549.271 494.879 549.926 495.332C553.778 498.629 555.15 501.627 555.582 506.617C555.994 517.126 555.298 526.139 548.937 534.813C539.093 542.143 528.689 543.963 516.581 542.584C508.425 540.739 500.478 533.903 496 527C492.487 521.408 493.366 514.019 494.359 507.723C496.823 499.584 504.349 492.896 511 488C515.23 486.59 519.256 486.776 523.687 486.75ZM509 504C507.824 505.238 507.824 505.238 506.625 506.5C504.221 510.199 502.711 513.513 503.234 518.016C505.039 524.405 509.462 526.881 515 530C515.803 530.55 516.606 531.101 517.434 531.668C522.864 534.487 529.276 532.856 534.898 531.09C538.946 529.339 542.224 527.684 544.125 523.563C545.688 517.528 546.033 511.137 545 505C542.534 500.97 539.135 499.51 534.937 497.625C524.176 495.917 516.339 495.159 509 504Z" fill="#023376"/>
<path d="M181.062 729.062C184 730 184 730 185.156 731.641C186.251 734.701 186.32 737.442 186.438 740.687C186.91 748.259 187.453 754.216 192.688 759.937C196.546 762.34 199.594 762.989 204 764C206.062 765.25 206.062 765.25 207 767C206.875 770.062 206.875 770.062 206 773C202.64 775.24 200.264 775.573 196.352 776.145C192.933 777.388 191.287 779.197 189 782C187.835 785.17 187.835 785.17 187.312 788.625C187.084 789.85 186.856 791.074 186.621 792.336C186.416 793.545 186.211 794.754 186 796C185.626 798.084 185.251 800.167 184.875 802.25C184.728 803.121 184.581 803.993 184.43 804.891C184 807 184 807 183 809C179.716 809.951 178.303 810.101 175 809C173.367 805.735 173.705 802.096 173.562 798.5C173.324 788.561 173.324 788.561 171 779C167.732 776.821 165.838 776.527 162 776C158.162 775.473 156.268 775.178 153 773C152.688 769.5 152.688 769.5 153 766C155.535 763.465 157.398 763.282 160.875 762.5C166.199 761.396 166.199 761.396 171 759C171.857 757.18 171.857 757.18 172.125 754.937C172.273 754.058 172.421 753.179 172.574 752.273C172.904 749.737 173.195 747.208 173.457 744.664C173.537 743.906 173.618 743.148 173.701 742.367C173.857 740.847 173.999 739.325 174.127 737.802C174.424 734.813 174.655 732.504 176.375 729.992C178 729 178 729 181.062 729.062Z" fill="#FFC563"/>
<path d="M410 120C411.725 121.725 411.373 124.08 411.563 126.437C411.688 127.921 411.688 127.921 411.816 129.434C412.281 138.463 411.581 146.497 409.699 155.359C409.462 156.507 409.225 157.655 408.981 158.838C408.481 161.249 407.975 163.66 407.465 166.069C406.688 169.75 405.93 173.435 405.174 177.121C404.684 179.472 404.192 181.822 403.699 184.172C403.474 185.269 403.249 186.366 403.017 187.496C400.233 200.512 400.233 200.512 395 204C390.367 204.824 386.973 204.596 382.938 202.125C379.252 196.18 380.772 189.409 382.206 182.819C382.753 180.538 383.314 178.26 383.887 175.984C384.186 174.77 384.485 173.555 384.793 172.304C385.586 169.101 386.39 165.902 387.199 162.704C387.688 160.747 388.167 158.789 388.641 156.829C389.56 153.043 390.502 149.263 391.449 145.484C391.87 143.74 391.87 143.74 392.299 141.961C393.908 135.706 395.42 131.589 400 127C401.084 125.014 401.084 125.014 401.688 123.187C403.691 118.323 405.297 118.794 410 120Z" fill="#003073"/>
<path d="M418.719 310.719C423.431 311.3 426.129 312.917 429.078 316.586C431.361 320.641 431.893 323.944 432.437 328.5C433.465 335.842 435.22 342.19 438.012 349.082C438.996 351.989 439.45 353.966 439 357C435.397 359.402 433.65 359.194 429.375 359.25C423.146 359.571 419.674 360.774 414.965 364.82C413 366 413 366 410.254 365.68C409.51 365.455 408.766 365.231 408 365C404.635 357.154 404.506 349.626 404.554 341.234C404.562 338.938 404.534 336.645 404.502 334.35C404.461 325.905 404.542 318.943 410.507 312.329C413.009 310.101 415.513 310.594 418.719 310.719Z" fill="#BEDBFC"/>
<path d="M847 771C847.66 771.33 848.32 771.66 849 772C848.304 782.787 845.253 791.68 837 799C833.806 801.306 830.497 803.193 827 805C825.594 805.733 825.594 805.733 824.16 806.48C814.719 811.104 814.719 811.104 809 810C796.991 805.259 796.991 805.259 794 799C793.375 796.187 793.375 796.187 794 793C798.473 786.237 804.986 780.361 812.688 777.75C815.119 777.264 817.551 776.924 820.008 776.586C826.632 775.662 832.392 774.265 838.617 771.824C841.523 770.819 843.952 770.609 847 771Z" fill="#C393FC"/>
<path d="M908 650C911.5 649.625 911.5 649.625 915 650C917.036 653.054 917.32 654.155 917.633 657.668C917.758 659.007 917.758 659.007 917.887 660.373C917.965 661.302 918.044 662.231 918.125 663.188C918.211 664.128 918.298 665.068 918.387 666.037C918.599 668.357 918.803 670.678 919 673C922.752 674.647 926.381 676.154 930.312 677.312C933.511 678.495 933.881 678.792 935.688 681.938C936 685 936 685 934.836 687.098C932.066 689.967 929.071 690.247 925.277 691.094C922.938 691.803 922.938 691.803 921.75 693.598C920.483 697.655 920.244 701.853 919.877 706.068C919.427 710.398 918.743 713.563 916 717C913 717.562 913 717.562 910 717C905.607 713.029 906.211 706.971 905.828 701.467C905.728 700.29 905.728 700.29 905.625 699.09C905.576 698.377 905.527 697.664 905.477 696.929C904.873 694.487 903.94 693.565 902 692C899.202 690.869 896.37 689.979 893.496 689.062C891 688 891 688 889 685C889.324 681.678 889.608 680.392 892 678C894.55 677.418 897.101 677.047 899.688 676.66C902.356 676.169 902.356 676.169 904 673C904.423 670.83 904.423 670.83 904.562 668.438C904.637 667.558 904.712 666.679 904.789 665.773C904.893 664.401 904.893 664.401 905 663C905.138 661.187 905.283 659.374 905.438 657.562C905.528 656.358 905.528 656.358 905.621 655.129C906 653 906 653 908 650Z" fill="#FFC562"/>
<path d="M781.56 262.619C796.264 262.656 808.318 266.209 819.473 276.219C830.023 287.068 833.271 298.993 833.321 313.614C833.21 321.435 832.256 329.178 827.023 335.32C825 337 825 337 822.375 336.938C820 336 820 336 818 333C818.294 329.824 818.817 326.799 819.527 323.691C821.479 312.58 820.252 301.926 814.313 292.312C807.995 283.484 799.709 277.797 789.148 275.355C786.683 274.948 784.243 274.789 781.75 274.625C778.449 274.33 777.157 274.102 774.313 272.25C773 270 773 270 773.125 267.375C774.821 262.772 776.957 262.717 781.56 262.619Z" fill="#003073"/>
<path d="M168.105 399.789C174.603 399.856 180.907 400.918 187.297 402.026C189.325 402.377 191.354 402.713 193.385 403.047C203.355 404.738 203.355 404.738 206.541 406.034C209.42 407.165 211.965 407.462 215.043 407.746C216.2 407.861 217.357 407.977 218.549 408.096C220.955 408.322 223.361 408.546 225.768 408.768C232.01 409.394 237.698 410.326 243.656 412.289C247.576 413.478 251.576 414.002 255.625 414.563C260.194 415.211 264.697 415.869 269.168 417.027C273.736 418.187 278.284 418.812 282.949 419.438C286 420 286 420 288.34 420.97C291.121 422.047 293.663 422.572 296.605 423.035C297.672 423.205 298.739 423.374 299.838 423.549C300.943 423.718 302.049 423.888 303.188 424.063C304.817 424.323 304.817 424.323 306.479 424.588C312.278 425.497 318.008 426.246 323.872 426.556C326.505 427.105 327.972 428.275 330 430C329.67 431.32 329.34 432.64 329 434C321.7 434.28 314.761 433.21 307.562 432.063C305.769 431.789 305.769 431.789 303.939 431.51C295.133 430.133 295.133 430.133 294 429C287.777 427.362 281.526 426.508 275.148 425.75C269.849 425.119 264.587 424.333 259.316 423.492C255.697 422.955 252.073 422.54 248.438 422.125C241.425 421.3 234.562 419.979 227.654 418.532C221.77 417.311 215.884 416.355 209.938 415.5C204.803 414.756 200.191 413.894 195.375 411.875C189.999 409.649 184.891 409.552 179.154 409.365C173.623 409.15 169.144 408.151 164 406C163.618 404.344 163.286 402.675 163 401C164.545 399.455 165.949 399.816 168.105 399.789Z" fill="#6AF4B5"/>
<path d="M790 478C795.498 481.517 799.55 485.978 802 492C802.769 496.959 802.678 501.376 800.312 505.875C796.445 511.101 791.556 515.083 785.039 516.395C777.968 516.943 771.73 513.966 766 510C762.533 505.36 762.198 501.605 763 496C764.836 489.366 768.11 484.61 774 481C779.099 478.617 784.394 476.981 790 478Z" fill="#FF84A9"/>
<path d="M694 717C696.938 716.5 696.938 716.5 700 717C703.411 721.163 703.527 725.166 703.688 730.312C703.739 731.423 703.739 731.423 703.791 732.557C703.873 734.371 703.938 736.185 704 738C704.687 738.17 705.374 738.34 706.082 738.516C706.983 738.758 707.884 739 708.812 739.25C709.706 739.482 710.599 739.714 711.52 739.953C714.417 741.176 715.458 742.288 717 745C716.875 747.625 716.875 747.625 716 750C713 752 713 752 709.438 752.938C705.759 753.679 705.759 753.679 704 757C703.516 760.185 703.167 763.345 702.877 766.551C702.564 769.413 702.308 771.564 700.625 773.945C698.044 775.62 695.981 775.381 693 775C690.871 771.806 690.661 769.683 690.265 765.943C689.605 758.62 689.605 758.62 685.617 752.805C683.095 751.605 680.69 750.733 678 750C677 749 677 749 676.75 746.125C677 743 677 743 678.062 741.25C680 740 680 740 683.5 739.125C687.058 738.348 687.058 738.348 688.652 735.844C690.179 732.622 690.644 729.909 691.062 726.375C691.791 720.314 691.791 720.314 694 717Z" fill="#FFC562"/>
<path d="M581.34 844.664C585.279 847.788 588.467 850.403 589.437 855.5C589.532 860.963 586.506 864.13 583 868C582.299 868.949 581.597 869.898 580.875 870.875C578.084 874.038 576.242 874.868 572.062 875.313C566.554 874.75 563.764 871.764 560 868C559.134 867.505 558.267 867.01 557.375 866.5C554.691 864.805 554.163 863.888 553 861C552.085 855.339 552.994 850.634 555.793 845.66C557.955 842.687 560.516 841.544 563.875 840.313C571.17 839.24 575.388 840.431 581.34 844.664Z" fill="#003073"/>
<path d="M771 284C782.543 283.401 790.74 284.212 799.813 291.687C805.877 297.43 809.638 303.96 810.238 312.32C810.392 320.218 810.05 326.979 806 334C804 336 804 336 800.438 336.187C797 336 797 336 796 335C795.859 330.687 795.934 327.166 797 323C797.788 316.244 796.688 310.748 793 305C788.048 298.831 782.414 296.818 774.856 295.02C772 294 772 294 769.988 292.262C769 290 769 290 769.813 286.75C770.205 285.842 770.596 284.935 771 284Z" fill="#003074"/>
<path d="M259.5 654.562C262 655 262 655 263.613 656.688C265.238 659.396 265.423 661.309 265.688 664.438C266.253 668.584 266.253 668.584 268.902 671.617C270.349 672.395 271.807 673.153 273.277 673.887C275 675 275 675 275.688 678.125C274.939 681.253 274.559 682.147 272 684C271.172 684.397 270.345 684.794 269.492 685.203C266.239 687.549 266.053 689.182 265.312 693.062C264.174 698.826 264.174 698.826 262 701C259 701.25 259 701.25 256 701C253.447 698.447 253.241 696.498 252.438 693C251.539 688.885 251.539 688.885 250 685C249.01 684.567 248.02 684.134 247 683.688C244 682 244 682 243 679.562C243 676.601 243.154 675.328 245 673C245.985 672.765 246.97 672.531 247.984 672.289C248.98 671.864 249.975 671.438 251 671C252.269 668.033 252.269 668.033 252.688 664.562C253.7 658.396 253.7 658.396 255.426 656.117C257 655 257 655 259.5 654.562Z" fill="#FFC562"/>
<path d="M844 381C845.365 383.37 845.926 385.53 846.348 388.223C846.745 390.595 847.146 392.749 848 395C850.884 397.027 850.884 397.027 854 398C856 400 856 400 856.312 402.437C856 405 856 405 854.812 406.625C853 408 853 408 850.437 409.25C847.033 411.694 846.886 413.978 846 418C844.162 423.838 844.162 423.838 843 425C840.667 425.041 838.333 425.042 836 425C834.051 421.435 833.311 418.082 832.562 414.121C832.049 411.723 832.049 411.723 830 409C827.448 407.795 827.448 407.795 825 407C823.663 400.561 823.663 400.561 825.125 398.125C827.379 396.773 829.429 396.464 832 396C832.17 394.94 832.34 393.881 832.516 392.789C832.759 391.401 833.004 390.013 833.25 388.625C833.36 387.926 833.469 387.228 833.582 386.508C834.52 381.373 834.52 381.373 836.945 379.488C839.957 378.772 841.379 379.414 844 381Z" fill="#FFC562"/>
<path d="M309 112C311.232 115.347 311.528 117.567 312.188 121.5C313.012 126.047 313.012 126.047 315.75 129.52C317.868 130.455 317.868 130.455 321 131C321.5 134.125 321.5 134.125 321 138C319.289 139.414 319.289 139.414 317.125 140.75C314.275 142.599 313.181 143.435 312.129 146.715C311.843 148.639 311.613 150.573 311.449 152.512C310.934 155.367 310.309 156.295 308 158C305.5 158.375 305.5 158.375 303 158C300.821 156.343 300.085 155.336 299.41 152.66C299.295 151.803 299.181 150.946 299.062 150.062C298.315 145.813 297.592 143.641 294 141C292.886 140.35 292.886 140.35 291.75 139.687C290 138 290 138 289.75 134.312C289.833 133.219 289.915 132.126 290 131C291.114 130.629 292.227 130.257 293.375 129.875C296.265 128.619 296.844 128.313 298.312 125.375C298.539 124.261 298.766 123.147 299 122C299.327 120.395 299.661 118.79 300 117.187C300.144 116.418 300.289 115.648 300.438 114.855C300.623 114.243 300.809 113.631 301 113C303.789 111.606 305.921 111.743 309 112Z" fill="#FFC561"/>
<path d="M504.438 299.688C507 300 507 300 508.578 301.113C510.576 303.764 510.774 306.244 511.312 309.5C511.969 312.968 511.969 312.968 513 316C515.918 318.086 515.918 318.086 519 319C520.629 321.648 521.211 323.008 520.562 326.062C519 328 519 328 515.562 329.438C512.542 330.967 512.045 331.873 510.875 335.145C510.137 338.422 509.504 341.679 509 345C505.688 345.688 505.688 345.688 502 346C499.137 343.93 498.528 341.963 497.938 338.562C497.372 335.377 496.718 332.769 495 330C493.969 329.381 492.938 328.762 491.875 328.125C489 326 489 326 488.312 322.938C489 320 489 320 491.312 318.25C492.199 317.838 493.086 317.425 494 317C497.259 315.29 497.259 315.29 497.879 312.031C498.104 310.866 498.33 309.701 498.562 308.5C500.181 300.233 500.181 300.233 504.438 299.688Z" fill="#FFC562"/>
<path d="M546 467C549.201 466.662 550.608 466.723 553.281 468.609C554.013 469.316 554.746 470.022 555.5 470.75C556.279 471.485 557.057 472.22 557.859 472.977C558.566 473.644 559.272 474.312 560 475C560.908 475.701 561.815 476.403 562.75 477.125C565 479 565 479 567.191 481.859C570.042 485.32 573.214 487.148 577.188 489.125C577.851 489.468 578.514 489.81 579.198 490.164C583.587 492.396 588.04 494.275 592.652 496C596.24 497.528 599.478 499.561 602.773 501.633C604.806 502.881 606.851 503.97 609 505C608.125 509.875 608.125 509.875 607 511C601.649 510.718 597.981 509.704 593.312 507.16C590.546 505.772 587.72 504.747 584.812 503.688C574.58 499.801 565.173 495.444 558 487C557.419 486.349 556.837 485.698 556.238 485.027C555.05 483.69 553.876 482.341 552.715 480.98C551.573 479.662 550.398 478.372 549.191 477.113C547.638 475.459 546.218 473.916 545 472C545.125 469.063 545.125 469.063 546 467Z" fill="#053678"/>
<path d="M768.375 547.688C771.752 549.618 773.635 551.245 775 555C775.726 561.328 774.521 565.69 771 571C768.908 573.441 768.331 573.937 765.063 574.563C758.054 574.248 750.978 570.067 746.25 565.125C744.568 560.919 744.425 558.526 745 554C750.025 545.303 759.685 543.758 768.375 547.688Z" fill="#FF84A9"/>
<path d="M574 645C577.278 645.464 578.99 646.659 581.437 648.812C593.17 657.686 607.973 656.791 622 657C622.249 660.966 622.151 661.793 619.688 665.188C615.226 669.857 615.226 669.857 612.027 670.23C606.222 670.111 606.222 670.111 604 669C601.772 668.87 599.543 668.77 597.312 668.688C586.219 667.908 581.342 663.161 574 655C572.509 652.018 572.881 649.284 573 646C573.33 645.67 573.66 645.34 574 645Z" fill="#7DAEFB"/>
<path d="M701 575C705.916 577.367 708.186 579.86 710 585C710.794 590.457 709.64 593.263 706.484 597.52C703.39 600.606 700.353 601.325 696.063 601.438C692.178 601.363 691.234 601.176 688 598.75C683.97 593.209 683.094 588.817 684 582C687.97 575.195 693.571 573.968 701 575Z" fill="#FF84A9"/>
<path d="M587 168C589 170 589 170 589.48 173.355C589 177 589 177 586.676 179.301C585.566 179.965 584.456 180.629 583.312 181.313C582.705 181.677 582.097 182.042 581.471 182.417C575.784 185.735 569.901 188.71 564 191.625C563.105 192.075 562.209 192.526 561.286 192.99C556.526 195.255 553.264 196.805 548 195C547 194 547 194 546.312 190.938C547.262 185.501 549.824 184.003 554.168 180.844C558.31 178.147 562.464 175.957 567 174C567.601 173.739 568.202 173.478 568.821 173.209C570.812 172.353 572.81 171.517 574.812 170.688C575.447 170.421 576.081 170.154 576.735 169.878C580.259 168.463 583.196 167.488 587 168Z" fill="#003073"/>
<path d="M571 150C572 153.063 572 153.063 572 157C565.73 166.687 548.595 173.423 538 177C534.688 177.438 534.688 177.438 532 177C530 175.313 530 175.313 529 173C529.915 168.426 532.361 166.676 536 164C538.476 162.458 541.009 161.033 543.562 159.625C544.266 159.237 544.969 158.848 545.693 158.448C547.118 157.665 548.544 156.884 549.973 156.107C551.813 155.102 553.642 154.076 555.469 153.047C564.773 148.019 564.773 148.019 571 150Z" fill="#003074"/>
<path d="M708.219 402.699C709.137 402.798 710.054 402.898 711 403C711.645 409.62 709.528 414.003 706.5 419.812C706.044 420.7 705.589 421.588 705.119 422.503C698.742 434.636 688.649 448.442 675 453C672.234 452.621 672.234 452.621 670 452C669.67 450.68 669.34 449.36 669 448C669.736 447.336 670.472 446.672 671.23 445.988C672.206 445.105 673.182 444.222 674.188 443.312C675.15 442.442 676.113 441.572 677.105 440.676C684.981 433.395 691.459 426.412 696.469 416.898C698.089 413.831 699.746 410.805 701.5 407.812C702.026 406.891 702.552 405.969 703.094 405.02C705 403 705 403 708.219 402.699Z" fill="#033578"/>
<path d="M804.25 729.688C804.956 729.684 805.663 729.681 806.391 729.678C810.122 729.717 811.825 729.883 815 732C815.707 735.383 815.572 738.601 815 742C811.652 746.185 807.103 747.101 802 748C798.536 748.266 795.098 748.281 791.625 748.25C790.724 748.258 789.823 748.265 788.895 748.273C788.035 748.271 787.175 748.268 786.289 748.266C785.124 748.262 785.124 748.262 783.936 748.259C782 748 782 748 780 746C779.875 742.75 779.875 742.75 781 739C787.318 732.375 795.265 729.478 804.25 729.688Z" fill="#C092FB"/>
<path d="M686.848 634.602C688.011 634.598 689.174 634.594 690.373 634.59C691.591 634.601 692.808 634.613 694.062 634.625C695.253 634.613 696.443 634.602 697.67 634.59C714.646 634.646 714.646 634.646 720 640C720.375 642.938 720.375 642.938 720 646C717.194 648.7 715.215 649.378 711.367 649.363C710.478 649.363 709.588 649.362 708.672 649.361C707.749 649.345 706.826 649.329 705.875 649.312C704.975 649.316 704.075 649.319 703.148 649.322C695.079 649.258 684.034 649.034 678 643C677.647 640.246 677.527 638.67 679.154 636.365C681.754 634.442 683.635 634.612 686.848 634.602Z" fill="#063476"/>
<path d="M446 576C448.472 576.289 449.675 576.647 451.379 578.496C457.789 589.01 459.186 599.882 459.25 612C459.271 612.972 459.291 613.944 459.313 614.945C459.342 620.368 459.153 624.358 456 629C453.938 630 453.938 630 452 630C450 628 450 628 449.761 625.596C449.761 624.096 449.761 624.096 449.762 622.566C449.742 620.893 449.742 620.893 449.722 619.186C449.711 617.99 449.699 616.795 449.688 615.562C449.493 605.853 448.603 597.088 445.639 587.826C444.371 583.841 443.605 581.031 445 577C445.33 576.67 445.66 576.34 446 576Z" fill="#043577"/>
<path d="M532.812 504.906C535.959 507.145 537.404 509.294 538.062 513C538.264 516.814 537.478 519.01 535 522C532.135 524.971 529.184 525.696 525.094 526.063C521.515 525.956 519.049 524.794 516 523C513.535 520.137 513.044 518.306 512.5 514.563C513.144 509.977 514.681 508.172 518 505C522.673 502.095 527.989 502.494 532.812 504.906Z" fill="#003074"/>
<path d="M373 616C373.495 618.475 373.495 618.475 374 621C372.84 621.818 372.84 621.818 371.656 622.652C359.229 631.65 352.14 641.53 345 655C340.125 654.125 340.125 654.125 339 653C339.177 642.201 343.832 633.869 351.188 626.125C364.574 613.524 364.574 613.524 373 616Z" fill="#053778"/>
<path d="M105 358C108.885 358.542 111.103 359.518 114.125 362C115.297 362.951 115.297 362.951 116.492 363.922C117.32 364.608 118.147 365.293 119 366C120.272 367.029 120.272 367.029 121.57 368.078C127.344 372.757 133.029 377.537 138.673 382.37C141.053 384.399 143.394 386.262 146 388C146 388.66 146 389.32 146 390C146.598 390.289 147.196 390.577 147.812 390.875C150 392 150 392 153 394C153.188 396.625 153.188 396.625 153 399C150.832 399.75 150.832 399.75 148 400C145.387 398.375 145.387 398.375 142.688 396C141.718 395.161 140.749 394.322 139.75 393.457C138.842 392.646 137.935 391.835 137 391C135.729 389.896 134.459 388.791 133.188 387.688C132.56 387.131 131.932 386.574 131.285 386C129.453 384.397 127.607 382.818 125.746 381.25C109.067 367.172 109.067 367.172 105 362C105 360.68 105 359.36 105 358Z" fill="#6CF6B6"/>
<path d="M429.695 367.856C430.576 367.901 431.456 367.947 432.363 367.994C433.275 368.058 434.186 368.122 435.125 368.188C436.044 368.232 436.963 368.276 437.91 368.322C444.728 368.728 444.728 368.728 447 371C446.836 373.031 446.836 373.031 446 375C443.317 376.192 440.788 377.123 438 378C431.365 380.125 426.148 382.323 420.723 386.734C418.544 388.335 416.699 388.918 414 389C413 388 413 388 412.875 386.215C413.256 379.28 415.952 375.62 421 371C424.008 368.364 425.701 367.633 429.695 367.856Z" fill="#7CADFB"/>
<path d="M713.692 427.453C716 428 716 428 718 430C716.962 440.725 708.784 449.328 701 456C697.74 458.492 695.312 460.112 691.063 459.75C689 459 689 459 688.172 457.332C688 455 688 455 690.141 452.512C691.168 451.561 692.206 450.62 693.25 449.688C698.768 444.54 703.139 439.045 707.257 432.725C710.39 428.124 710.39 428.124 713.692 427.453Z" fill="#033478"/>
<path d="M309.913 499.602C318.255 499.694 324.575 501.034 332 505C332.66 505.33 333.32 505.66 334 506C334.043 507.666 334.041 509.334 334 511C332.47 512.53 331.142 512.207 329 512.25C322.541 512.204 316.346 510.924 310.023 509.727C306.875 509.136 303.756 508.717 300.562 508.438C297 508 297 508 295 506C294.812 503.438 294.812 503.438 295 501C297.82 498.18 306.12 499.63 309.913 499.602Z" fill="#063779"/>
<path d="M623.562 554.938C624.769 554.968 624.769 554.968 626 555C631.86 565.494 632.543 577.486 630.125 589.25C629 593 629 593 627 595C624.375 594.625 624.375 594.625 622 594C621.975 593.311 621.95 592.622 621.924 591.911C621.806 588.712 621.685 585.512 621.562 582.312C621.519 581.171 621.475 580.03 621.43 578.854C621.152 571.9 620.768 564.989 620.086 558.062C620.058 557.382 620.029 556.701 620 556C621 555 621 555 623.562 554.938Z" fill="#033476"/>
<path d="M379 640C379.812 641.688 379.812 641.688 380 644C378 646.25 378 646.25 376.59 647.527C371.022 652.685 366.444 658.879 362 665C360.35 664.67 358.7 664.34 357 664C357.032 656.257 358.621 651.604 364 646C368.75 641.414 372.295 638.138 379 640Z" fill="#053678"/>
<path d="M819 564C821.245 566.318 821.956 567.965 822.094 571.191C821.847 574.932 821.393 577.403 819.312 580.563C816.188 582.504 814.626 582.653 811 582C807.361 579.709 805.353 578.352 804.25 574.125C805.303 569.736 807.75 567.056 811 564C813.996 562.502 815.832 563.095 819 564Z" fill="#FF85AA"/>
<path d="M211.742 560.32C212.86 560.657 212.86 560.657 214 561C214.824 563.121 214.824 563.121 215 566C213.335 568.283 211.792 570.093 209.813 572.062C209.317 572.579 208.821 573.095 208.311 573.627C207.339 574.635 206.357 575.635 205.367 576.624C204.15 577.849 202.976 579.115 201.809 580.387C201.212 580.919 200.615 581.451 200 582C197.25 581.75 197.25 581.75 195 581C194.087 578.026 193.684 576.606 195.152 573.789C206.745 559.737 206.745 559.737 211.742 560.32Z" fill="#063879"/>
<path d="M313 537C321.068 536.62 328.405 537.033 336 540C336.66 540.66 337.32 541.32 338 542C337.444 546.556 337.444 546.556 336 548C328.464 548.822 321.125 547.458 314 545C313.34 544.34 312.68 543.68 312 543C312.375 539.875 312.375 539.875 313 537Z" fill="#063779"/>
<path d="M764 603C766.375 604.563 766.375 604.563 768 607C768.567 610.965 768.576 613.079 766.438 616.5C764 618 764 618 760.438 618C757 617 757 617 755.063 615.313C753.662 612.264 753.516 610.321 754 607C756.781 602.936 759.188 602.198 764 603Z" fill="#FF86AA"/>
<path d="M699 518C701.875 519.625 701.875 519.625 704 522C704.686 525.656 704.485 527.263 702.438 530.375C699.101 532.6 696.931 532.5 693 532C691.063 531 691.063 531 690 529C689.467 525.399 689.313 522.222 691.125 519C693.959 517.488 695.833 517.557 699 518Z" fill="#FF85A9"/>
<path d="M359 510.688C363.685 510.726 369.623 512.623 373 516C373.125 518.5 373.125 518.5 373 521C371.37 522.63 369.556 522.21 367.312 522.25C361.783 522.203 357.976 520.976 354 517C354.715 511.134 354.715 511.134 359 510.688Z" fill="#0B3C7C"/>
<path d="M352.625 759.688C355 760 355 760 356 761C356.153 763.079 356.222 765.165 356.25 767.25C356.289 768.959 356.289 768.959 356.328 770.703C355.974 774.264 355.059 776.118 353 779C348.125 778.125 348.125 778.125 347 777C346.848 774.9 346.778 772.793 346.75 770.688C346.724 769.536 346.698 768.385 346.672 767.199C347.114 762.889 348.088 760.228 352.625 759.688Z" fill="#043678"/>
<path d="M537.188 445.5C541.029 446.183 542.396 447.92 544.766 450.918C546.802 454.353 547 457.019 547 461C546.34 461.66 545.68 462.32 545 463C542.625 462.938 542.625 462.938 540 462C536.667 458.381 534.071 455.374 533.812 450.375C534.043 446.219 534.043 446.219 537.188 445.5Z" fill="#093B7C"/>
</svg>
